<svg width="272" height="272" viewBox="0 0 272 272" fill="none" xmlns="http://www.w3.org/2000/svg">
<g style="mix-blend-mode:overlay" opacity="0.5">
<path d="M13.99 9.25L26.99 16.75V31.75L13.99 39.25L1 31.75V16.75L13.99 9.25ZM3 17.9V30.6L13.99 36.94L24.99 30.59V17.9L13.99 11.56L3 17.9ZM0 15L12.98 7.5V0H10.98V6.35L0 12.69V14.99V15ZM0 33.5L12.98 41V49H10.98V42.15L0 35.81V33.51V33.5ZM15 0V7.5L27.99 15H28V12.69H27.99L17 6.35V0H15ZM15 49V41L27.99 33.5H28V35.81H27.99L17 42.15V49H15Z" fill="black"/>
<path d="M13.99 58.25L26.99 65.75V80.75L13.99 88.25L1 80.75V65.75L13.99 58.25ZM3 66.9V79.6L13.99 85.94L24.99 79.59V66.9L13.99 60.56L3 66.9ZM0 64L12.98 56.5V49H10.98V55.35L0 61.69V63.99V64ZM0 82.5L12.98 90V98H10.98V91.15L0 84.81V82.51V82.5ZM15 49V56.5L27.99 64H28V61.69H27.99L17 55.35V49H15ZM15 98V90L27.99 82.5H28V84.81H27.99L17 91.15V98H15Z" fill="black"/>
<path d="M13.99 107.25L26.99 114.75V129.75L13.99 137.25L1 129.75V114.75L13.99 107.25ZM3 115.9V128.6L13.99 134.94L24.99 128.59V115.9L13.99 109.56L3 115.9ZM0 113L12.98 105.5V98H10.98V104.35L0 110.69V112.99V113ZM0 131.5L12.98 139V147H10.98V140.15L0 133.81V131.51V131.5ZM15 98V105.5L27.99 113H28V110.69H27.99L17 104.35V98H15ZM15 147V139L27.99 131.5H28V133.81H27.99L17 140.15V147H15Z" fill="black"/>
<path d="M13.99 156.25L26.99 163.75V178.75L13.99 186.25L1 178.75V163.75L13.99 156.25ZM3 164.9V177.6L13.99 183.94L24.99 177.59V164.9L13.99 158.56L3 164.9ZM0 162L12.98 154.5V147H10.98V153.35L0 159.69V161.99V162ZM0 180.5L12.98 188V196H10.98V189.15L0 182.81V180.51V180.5ZM15 147V154.5L27.99 162H28V159.69H27.99L17 153.35V147H15ZM15 196V188L27.99 180.5H28V182.81H27.99L17 189.15V196H15Z" fill="black"/>
<path d="M13.99 205.25L26.99 212.75V227.75L13.99 235.25L1 227.75V212.75L13.99 205.25ZM3 213.9V226.6L13.99 232.94L24.99 226.59V213.9L13.99 207.56L3 213.9ZM0 211L12.98 203.5V196H10.98V202.35L0 208.69V210.99V211ZM0 229.5L12.98 237V245H10.98V238.15L0 231.81V229.51V229.5ZM15 196V203.5L27.99 211H28V208.69H27.99L17 202.35V196H15ZM15 245V237L27.99 229.5H28V231.81H27.99L17 238.15V245H15Z" fill="black"/>
<path d="M13.99 254.25L26.99 261.75V276.75L13.99 284.25L1 276.75V261.75L13.99 254.25ZM3 262.9V275.6L13.99 281.94L24.99 275.59V262.9L13.99 256.56L3 262.9ZM0 260L12.98 252.5V245H10.98V251.35L0 257.69V259.99V260ZM0 278.5L12.98 286V294H10.98V287.15L0 280.81V278.51V278.5ZM15 245V252.5L27.99 260H28V257.69H27.99L17 251.35V245H15ZM15 294V286L27.99 278.5H28V280.81H27.99L17 287.15V294H15Z" fill="black"/>
<path d="M41.99 9.25L54.99 16.75V31.75L41.99 39.25L29 31.75V16.75L41.99 9.25ZM31 17.9V30.6L41.99 36.94L52.99 30.59V17.9L41.99 11.56L31 17.9ZM28 15L40.98 7.5V0H38.98V6.35L28 12.69V14.99V15ZM28 33.5L40.98 41V49H38.98V42.15L28 35.81V33.51V33.5ZM43 0V7.5L55.99 15H56V12.69H55.99L45 6.35V0H43ZM43 49V41L55.99 33.5H56V35.81H55.99L45 42.15V49H43Z" fill="black"/>
<path d="M41.99 58.25L54.99 65.75V80.75L41.99 88.25L29 80.75V65.75L41.99 58.25ZM31 66.9V79.6L41.99 85.94L52.99 79.59V66.9L41.99 60.56L31 66.9ZM28 64L40.98 56.5V49H38.98V55.35L28 61.69V63.99V64ZM28 82.5L40.98 90V98H38.98V91.15L28 84.81V82.51V82.5ZM43 49V56.5L55.99 64H56V61.69H55.99L45 55.35V49H43ZM43 98V90L55.99 82.5H56V84.81H55.99L45 91.15V98H43Z" fill="black"/>
<path d="M41.99 107.25L54.99 114.75V129.75L41.99 137.25L29 129.75V114.75L41.99 107.25ZM31 115.9V128.6L41.99 134.94L52.99 128.59V115.9L41.99 109.56L31 115.9ZM28 113L40.98 105.5V98H38.98V104.35L28 110.69V112.99V113ZM28 131.5L40.98 139V147H38.98V140.15L28 133.81V131.51V131.5ZM43 98V105.5L55.99 113H56V110.69H55.99L45 104.35V98H43ZM43 147V139L55.99 131.5H56V133.81H55.99L45 140.15V147H43Z" fill="black"/>
<path d="M41.99 156.25L54.99 163.75V178.75L41.99 186.25L29 178.75V163.75L41.99 156.25ZM31 164.9V177.6L41.99 183.94L52.99 177.59V164.9L41.99 158.56L31 164.9ZM28 162L40.98 154.5V147H38.98V153.35L28 159.69V161.99V162ZM28 180.5L40.98 188V196H38.98V189.15L28 182.81V180.51V180.5ZM43 147V154.5L55.99 162H56V159.69H55.99L45 153.35V147H43ZM43 196V188L55.99 180.5H56V182.81H55.99L45 189.15V196H43Z" fill="black"/>
<path d="M41.99 205.25L54.99 212.75V227.75L41.99 235.25L29 227.75V212.75L41.99 205.25ZM31 213.9V226.6L41.99 232.94L52.99 226.59V213.9L41.99 207.56L31 213.9ZM28 211L40.98 203.5V196H38.98V202.35L28 208.69V210.99V211ZM28 229.5L40.98 237V245H38.98V238.15L28 231.81V229.51V229.5ZM43 196V203.5L55.99 211H56V208.69H55.99L45 202.35V196H43ZM43 245V237L55.99 229.5H56V231.81H55.99L45 238.15V245H43Z" fill="black"/>
<path d="M41.99 254.25L54.99 261.75V276.75L41.99 284.25L29 276.75V261.75L41.99 254.25ZM31 262.9V275.6L41.99 281.94L52.99 275.59V262.9L41.99 256.56L31 262.9ZM28 260L40.98 252.5V245H38.98V251.35L28 257.69V259.99V260ZM28 278.5L40.98 286V294H38.98V287.15L28 280.81V278.51V278.5ZM43 245V252.5L55.99 260H56V257.69H55.99L45 251.35V245H43ZM43 294V286L55.99 278.5H56V280.81H55.99L45 287.15V294H43Z" fill="black"/>
<path d="M69.99 9.25L82.99 16.75V31.75L69.99 39.25L57 31.75V16.75L69.99 9.25ZM59 17.9V30.6L69.99 36.94L80.99 30.59V17.9L69.99 11.56L59 17.9ZM56 15L68.98 7.5V0H66.98V6.35L56 12.69V14.99V15ZM56 33.5L68.98 41V49H66.98V42.15L56 35.81V33.51V33.5ZM71 0V7.5L83.99 15H84V12.69H83.99L73 6.35V0H71ZM71 49V41L83.99 33.5H84V35.81H83.99L73 42.15V49H71Z" fill="black"/>
<path d="M69.99 58.25L82.99 65.75V80.75L69.99 88.25L57 80.75V65.75L69.99 58.25ZM59 66.9V79.6L69.99 85.94L80.99 79.59V66.9L69.99 60.56L59 66.9ZM56 64L68.98 56.5V49H66.98V55.35L56 61.69V63.99V64ZM56 82.5L68.98 90V98H66.98V91.15L56 84.81V82.51V82.5ZM71 49V56.5L83.99 64H84V61.69H83.99L73 55.35V49H71ZM71 98V90L83.99 82.5H84V84.81H83.99L73 91.15V98H71Z" fill="black"/>
<path d="M69.99 107.25L82.99 114.75V129.75L69.99 137.25L57 129.75V114.75L69.99 107.25ZM59 115.9V128.6L69.99 134.94L80.99 128.59V115.9L69.99 109.56L59 115.9ZM56 113L68.98 105.5V98H66.98V104.35L56 110.69V112.99V113ZM56 131.5L68.98 139V147H66.98V140.15L56 133.81V131.51V131.5ZM71 98V105.5L83.99 113H84V110.69H83.99L73 104.35V98H71ZM71 147V139L83.99 131.5H84V133.81H83.99L73 140.15V147H71Z" fill="black"/>
<path d="M69.99 156.25L82.99 163.75V178.75L69.99 186.25L57 178.75V163.75L69.99 156.25ZM59 164.9V177.6L69.99 183.94L80.99 177.59V164.9L69.99 158.56L59 164.9ZM56 162L68.98 154.5V147H66.98V153.35L56 159.69V161.99V162ZM56 180.5L68.98 188V196H66.98V189.15L56 182.81V180.51V180.5ZM71 147V154.5L83.99 162H84V159.69H83.99L73 153.35V147H71ZM71 196V188L83.99 180.5H84V182.81H83.99L73 189.15V196H71Z" fill="black"/>
<path d="M69.99 205.25L82.99 212.75V227.75L69.99 235.25L57 227.75V212.75L69.99 205.25ZM59 213.9V226.6L69.99 232.94L80.99 226.59V213.9L69.99 207.56L59 213.9ZM56 211L68.98 203.5V196H66.98V202.35L56 208.69V210.99V211ZM56 229.5L68.98 237V245H66.98V238.15L56 231.81V229.51V229.5ZM71 196V203.5L83.99 211H84V208.69H83.99L73 202.35V196H71ZM71 245V237L83.99 229.5H84V231.81H83.99L73 238.15V245H71Z" fill="black"/>
<path d="M69.99 254.25L82.99 261.75V276.75L69.99 284.25L57 276.75V261.75L69.99 254.25ZM59 262.9V275.6L69.99 281.94L80.99 275.59V262.9L69.99 256.56L59 262.9ZM56 260L68.98 252.5V245H66.98V251.35L56 257.69V259.99V260ZM56 278.5L68.98 286V294H66.98V287.15L56 280.81V278.51V278.5ZM71 245V252.5L83.99 260H84V257.69H83.99L73 251.35V245H71ZM71 294V286L83.99 278.5H84V280.81H83.99L73 287.15V294H71Z" fill="black"/>
<path d="M97.99 9.25L110.99 16.75V31.75L97.99 39.25L85 31.75V16.75L97.99 9.25ZM87 17.9V30.6L97.99 36.94L108.99 30.59V17.9L97.99 11.56L87 17.9ZM84 15L96.98 7.5V0H94.98V6.35L84 12.69V14.99V15ZM84 33.5L96.98 41V49H94.98V42.15L84 35.81V33.51V33.5ZM99 0V7.5L111.99 15H112V12.69H111.99L101 6.35V0H99ZM99 49V41L111.99 33.5H112V35.81H111.99L101 42.15V49H99Z" fill="black"/>
<path d="M97.99 58.25L110.99 65.75V80.75L97.99 88.25L85 80.75V65.75L97.99 58.25ZM87 66.9V79.6L97.99 85.94L108.99 79.59V66.9L97.99 60.56L87 66.9ZM84 64L96.98 56.5V49H94.98V55.35L84 61.69V63.99V64ZM84 82.5L96.98 90V98H94.98V91.15L84 84.81V82.51V82.5ZM99 49V56.5L111.99 64H112V61.69H111.99L101 55.35V49H99ZM99 98V90L111.99 82.5H112V84.81H111.99L101 91.15V98H99Z" fill="black"/>
<path d="M97.99 107.25L110.99 114.75V129.75L97.99 137.25L85 129.75V114.75L97.99 107.25ZM87 115.9V128.6L97.99 134.94L108.99 128.59V115.9L97.99 109.56L87 115.9ZM84 113L96.98 105.5V98H94.98V104.35L84 110.69V112.99V113ZM84 131.5L96.98 139V147H94.98V140.15L84 133.81V131.51V131.5ZM99 98V105.5L111.99 113H112V110.69H111.99L101 104.35V98H99ZM99 147V139L111.99 131.5H112V133.81H111.99L101 140.15V147H99Z" fill="black"/>
<path d="M97.99 156.25L110.99 163.75V178.75L97.99 186.25L85 178.75V163.75L97.99 156.25ZM87 164.9V177.6L97.99 183.94L108.99 177.59V164.9L97.99 158.56L87 164.9ZM84 162L96.98 154.5V147H94.98V153.35L84 159.69V161.99V162ZM84 180.5L96.98 188V196H94.98V189.15L84 182.81V180.51V180.5ZM99 147V154.5L111.99 162H112V159.69H111.99L101 153.35V147H99ZM99 196V188L111.99 180.5H112V182.81H111.99L101 189.15V196H99Z" fill="black"/>
<path d="M97.99 205.25L110.99 212.75V227.75L97.99 235.25L85 227.75V212.75L97.99 205.25ZM87 213.9V226.6L97.99 232.94L108.99 226.59V213.9L97.99 207.56L87 213.9ZM84 211L96.98 203.5V196H94.98V202.35L84 208.69V210.99V211ZM84 229.5L96.98 237V245H94.98V238.15L84 231.81V229.51V229.5ZM99 196V203.5L111.99 211H112V208.69H111.99L101 202.35V196H99ZM99 245V237L111.99 229.5H112V231.81H111.99L101 238.15V245H99Z" fill="black"/>
<path d="M97.99 254.25L110.99 261.75V276.75L97.99 284.25L85 276.75V261.75L97.99 254.25ZM87 262.9V275.6L97.99 281.94L108.99 275.59V262.9L97.99 256.56L87 262.9ZM84 260L96.98 252.5V245H94.98V251.35L84 257.69V259.99V260ZM84 278.5L96.98 286V294H94.98V287.15L84 280.81V278.51V278.5ZM99 245V252.5L111.99 260H112V257.69H111.99L101 251.35V245H99ZM99 294V286L111.99 278.5H112V280.81H111.99L101 287.15V294H99Z" fill="black"/>
<path d="M125.99 9.25L138.99 16.75V31.75L125.99 39.25L113 31.75V16.75L125.99 9.25ZM115 17.9V30.6L125.99 36.94L136.99 30.59V17.9L125.99 11.56L115 17.9ZM112 15L124.98 7.5V0H122.98V6.35L112 12.69V14.99V15ZM112 33.5L124.98 41V49H122.98V42.15L112 35.81V33.51V33.5ZM127 0V7.5L139.99 15H140V12.69H139.99L129 6.35V0H127ZM127 49V41L139.99 33.5H140V35.81H139.99L129 42.15V49H127Z" fill="black"/>
<path d="M125.99 58.25L138.99 65.75V80.75L125.99 88.25L113 80.75V65.75L125.99 58.25ZM115 66.9V79.6L125.99 85.94L136.99 79.59V66.9L125.99 60.56L115 66.9ZM112 64L124.98 56.5V49H122.98V55.35L112 61.69V63.99V64ZM112 82.5L124.98 90V98H122.98V91.15L112 84.81V82.51V82.5ZM127 49V56.5L139.99 64H140V61.69H139.99L129 55.35V49H127ZM127 98V90L139.99 82.5H140V84.81H139.99L129 91.15V98H127Z" fill="black"/>
<path d="M125.99 107.25L138.99 114.75V129.75L125.99 137.25L113 129.75V114.75L125.99 107.25ZM115 115.9V128.6L125.99 134.94L136.99 128.59V115.9L125.99 109.56L115 115.9ZM112 113L124.98 105.5V98H122.98V104.35L112 110.69V112.99V113ZM112 131.5L124.98 139V147H122.98V140.15L112 133.81V131.51V131.5ZM127 98V105.5L139.99 113H140V110.69H139.99L129 104.35V98H127ZM127 147V139L139.99 131.5H140V133.81H139.99L129 140.15V147H127Z" fill="black"/>
<path d="M125.99 156.25L138.99 163.75V178.75L125.99 186.25L113 178.75V163.75L125.99 156.25ZM115 164.9V177.6L125.99 183.94L136.99 177.59V164.9L125.99 158.56L115 164.9ZM112 162L124.98 154.5V147H122.98V153.35L112 159.69V161.99V162ZM112 180.5L124.98 188V196H122.98V189.15L112 182.81V180.51V180.5ZM127 147V154.5L139.99 162H140V159.69H139.99L129 153.35V147H127ZM127 196V188L139.99 180.5H140V182.81H139.99L129 189.15V196H127Z" fill="black"/>
<path d="M125.99 205.25L138.99 212.75V227.75L125.99 235.25L113 227.75V212.75L125.99 205.25ZM115 213.9V226.6L125.99 232.94L136.99 226.59V213.9L125.99 207.56L115 213.9ZM112 211L124.98 203.5V196H122.98V202.35L112 208.69V210.99V211ZM112 229.5L124.98 237V245H122.98V238.15L112 231.81V229.51V229.5ZM127 196V203.5L139.99 211H140V208.69H139.99L129 202.35V196H127ZM127 245V237L139.99 229.5H140V231.81H139.99L129 238.15V245H127Z" fill="black"/>
<path d="M125.99 254.25L138.99 261.75V276.75L125.99 284.25L113 276.75V261.75L125.99 254.25ZM115 262.9V275.6L125.99 281.94L136.99 275.59V262.9L125.99 256.56L115 262.9ZM112 260L124.98 252.5V245H122.98V251.35L112 257.69V259.99V260ZM112 278.5L124.98 286V294H122.98V287.15L112 280.81V278.51V278.5ZM127 245V252.5L139.99 260H140V257.69H139.99L129 251.35V245H127ZM127 294V286L139.99 278.5H140V280.81H139.99L129 287.15V294H127Z" fill="black"/>
<path d="M153.99 9.25L166.99 16.75V31.75L153.99 39.25L141 31.75V16.75L153.99 9.25ZM143 17.9V30.6L153.99 36.94L164.99 30.59V17.9L153.99 11.56L143 17.9ZM140 15L152.98 7.5V0H150.98V6.35L140 12.69V14.99V15ZM140 33.5L152.98 41V49H150.98V42.15L140 35.81V33.51V33.5ZM155 0V7.5L167.99 15H168V12.69H167.99L157 6.35V0H155ZM155 49V41L167.99 33.5H168V35.81H167.99L157 42.15V49H155Z" fill="black"/>
<path d="M153.99 58.25L166.99 65.75V80.75L153.99 88.25L141 80.75V65.75L153.99 58.25ZM143 66.9V79.6L153.99 85.94L164.99 79.59V66.9L153.99 60.56L143 66.9ZM140 64L152.98 56.5V49H150.98V55.35L140 61.69V63.99V64ZM140 82.5L152.98 90V98H150.98V91.15L140 84.81V82.51V82.5ZM155 49V56.5L167.99 64H168V61.69H167.99L157 55.35V49H155ZM155 98V90L167.99 82.5H168V84.81H167.99L157 91.15V98H155Z" fill="black"/>
<path d="M153.99 107.25L166.99 114.75V129.75L153.99 137.25L141 129.75V114.75L153.99 107.25ZM143 115.9V128.6L153.99 134.94L164.99 128.59V115.9L153.99 109.56L143 115.9ZM140 113L152.98 105.5V98H150.98V104.35L140 110.69V112.99V113ZM140 131.5L152.98 139V147H150.98V140.15L140 133.81V131.51V131.5ZM155 98V105.5L167.99 113H168V110.69H167.99L157 104.35V98H155ZM155 147V139L167.99 131.5H168V133.81H167.99L157 140.15V147H155Z" fill="black"/>
<path d="M153.99 156.25L166.99 163.75V178.75L153.99 186.25L141 178.75V163.75L153.99 156.25ZM143 164.9V177.6L153.99 183.94L164.99 177.59V164.9L153.99 158.56L143 164.9ZM140 162L152.98 154.5V147H150.98V153.35L140 159.69V161.99V162ZM140 180.5L152.98 188V196H150.98V189.15L140 182.81V180.51V180.5ZM155 147V154.5L167.99 162H168V159.69H167.99L157 153.35V147H155ZM155 196V188L167.99 180.5H168V182.81H167.99L157 189.15V196H155Z" fill="black"/>
<path d="M153.99 205.25L166.99 212.75V227.75L153.99 235.25L141 227.75V212.75L153.99 205.25ZM143 213.9V226.6L153.99 232.94L164.99 226.59V213.9L153.99 207.56L143 213.9ZM140 211L152.98 203.5V196H150.98V202.35L140 208.69V210.99V211ZM140 229.5L152.98 237V245H150.98V238.15L140 231.81V229.51V229.5ZM155 196V203.5L167.99 211H168V208.69H167.99L157 202.35V196H155ZM155 245V237L167.99 229.5H168V231.81H167.99L157 238.15V245H155Z" fill="black"/>
<path d="M153.99 254.25L166.99 261.75V276.75L153.99 284.25L141 276.75V261.75L153.99 254.25ZM143 262.9V275.6L153.99 281.94L164.99 275.59V262.9L153.99 256.56L143 262.9ZM140 260L152.98 252.5V245H150.98V251.35L140 257.69V259.99V260ZM140 278.5L152.98 286V294H150.98V287.15L140 280.81V278.51V278.5ZM155 245V252.5L167.99 260H168V257.69H167.99L157 251.35V245H155ZM155 294V286L167.99 278.5H168V280.81H167.99L157 287.15V294H155Z" fill="black"/>
<path d="M181.99 9.25L194.99 16.75V31.75L181.99 39.25L169 31.75V16.75L181.99 9.25ZM171 17.9V30.6L181.99 36.94L192.99 30.59V17.9L181.99 11.56L171 17.9ZM168 15L180.98 7.5V0H178.98V6.35L168 12.69V14.99V15ZM168 33.5L180.98 41V49H178.98V42.15L168 35.81V33.51V33.5ZM183 0V7.5L195.99 15H196V12.69H195.99L185 6.35V0H183ZM183 49V41L195.99 33.5H196V35.81H195.99L185 42.15V49H183Z" fill="black"/>
<path d="M181.99 58.25L194.99 65.75V80.75L181.99 88.25L169 80.75V65.75L181.99 58.25ZM171 66.9V79.6L181.99 85.94L192.99 79.59V66.9L181.99 60.56L171 66.9ZM168 64L180.98 56.5V49H178.98V55.35L168 61.69V63.99V64ZM168 82.5L180.98 90V98H178.98V91.15L168 84.81V82.51V82.5ZM183 49V56.5L195.99 64H196V61.69H195.99L185 55.35V49H183ZM183 98V90L195.99 82.5H196V84.81H195.99L185 91.15V98H183Z" fill="black"/>
<path d="M181.99 107.25L194.99 114.75V129.75L181.99 137.25L169 129.75V114.75L181.99 107.25ZM171 115.9V128.6L181.99 134.94L192.99 128.59V115.9L181.99 109.56L171 115.9ZM168 113L180.98 105.5V98H178.98V104.35L168 110.69V112.99V113ZM168 131.5L180.98 139V147H178.98V140.15L168 133.81V131.51V131.5ZM183 98V105.5L195.99 113H196V110.69H195.99L185 104.35V98H183ZM183 147V139L195.99 131.5H196V133.81H195.99L185 140.15V147H183Z" fill="black"/>
<path d="M181.99 156.25L194.99 163.75V178.75L181.99 186.25L169 178.75V163.75L181.99 156.25ZM171 164.9V177.6L181.99 183.94L192.99 177.59V164.9L181.99 158.56L171 164.9ZM168 162L180.98 154.5V147H178.98V153.35L168 159.69V161.99V162ZM168 180.5L180.98 188V196H178.98V189.15L168 182.81V180.51V180.5ZM183 147V154.5L195.99 162H196V159.69H195.99L185 153.35V147H183ZM183 196V188L195.99 180.5H196V182.81H195.99L185 189.15V196H183Z" fill="black"/>
<path d="M181.99 205.25L194.99 212.75V227.75L181.99 235.25L169 227.75V212.75L181.99 205.25ZM171 213.9V226.6L181.99 232.94L192.99 226.59V213.9L181.99 207.56L171 213.9ZM168 211L180.98 203.5V196H178.98V202.35L168 208.69V210.99V211ZM168 229.5L180.98 237V245H178.98V238.15L168 231.81V229.51V229.5ZM183 196V203.5L195.99 211H196V208.69H195.99L185 202.35V196H183ZM183 245V237L195.99 229.5H196V231.81H195.99L185 238.15V245H183Z" fill="black"/>
<path d="M181.99 254.25L194.99 261.75V276.75L181.99 284.25L169 276.75V261.75L181.99 254.25ZM171 262.9V275.6L181.99 281.94L192.99 275.59V262.9L181.99 256.56L171 262.9ZM168 260L180.98 252.5V245H178.98V251.35L168 257.69V259.99V260ZM168 278.5L180.98 286V294H178.98V287.15L168 280.81V278.51V278.5ZM183 245V252.5L195.99 260H196V257.69H195.99L185 251.35V245H183ZM183 294V286L195.99 278.5H196V280.81H195.99L185 287.15V294H183Z" fill="black"/>
<path d="M209.99 9.25L222.99 16.75V31.75L209.99 39.25L197 31.75V16.75L209.99 9.25ZM199 17.9V30.6L209.99 36.94L220.99 30.59V17.9L209.99 11.56L199 17.9ZM196 15L208.98 7.5V0H206.98V6.35L196 12.69V14.99V15ZM196 33.5L208.98 41V49H206.98V42.15L196 35.81V33.51V33.5ZM211 0V7.5L223.99 15H224V12.69H223.99L213 6.35V0H211ZM211 49V41L223.99 33.5H224V35.81H223.99L213 42.15V49H211Z" fill="black"/>
<path d="M209.99 58.25L222.99 65.75V80.75L209.99 88.25L197 80.75V65.75L209.99 58.25ZM199 66.9V79.6L209.99 85.94L220.99 79.59V66.9L209.99 60.56L199 66.9ZM196 64L208.98 56.5V49H206.98V55.35L196 61.69V63.99V64ZM196 82.5L208.98 90V98H206.98V91.15L196 84.81V82.51V82.5ZM211 49V56.5L223.99 64H224V61.69H223.99L213 55.35V49H211ZM211 98V90L223.99 82.5H224V84.81H223.99L213 91.15V98H211Z" fill="black"/>
<path d="M209.99 107.25L222.99 114.75V129.75L209.99 137.25L197 129.75V114.75L209.99 107.25ZM199 115.9V128.6L209.99 134.94L220.99 128.59V115.9L209.99 109.56L199 115.9ZM196 113L208.98 105.5V98H206.98V104.35L196 110.69V112.99V113ZM196 131.5L208.98 139V147H206.98V140.15L196 133.81V131.51V131.5ZM211 98V105.5L223.99 113H224V110.69H223.99L213 104.35V98H211ZM211 147V139L223.99 131.5H224V133.81H223.99L213 140.15V147H211Z" fill="black"/>
<path d="M209.99 156.25L222.99 163.75V178.75L209.99 186.25L197 178.75V163.75L209.99 156.25ZM199 164.9V177.6L209.99 183.94L220.99 177.59V164.9L209.99 158.56L199 164.9ZM196 162L208.98 154.5V147H206.98V153.35L196 159.69V161.99V162ZM196 180.5L208.98 188V196H206.98V189.15L196 182.81V180.51V180.5ZM211 147V154.5L223.99 162H224V159.69H223.99L213 153.35V147H211ZM211 196V188L223.99 180.5H224V182.81H223.99L213 189.15V196H211Z" fill="black"/>
<path d="M209.99 205.25L222.99 212.75V227.75L209.99 235.25L197 227.75V212.75L209.99 205.25ZM199 213.9V226.6L209.99 232.94L220.99 226.59V213.9L209.99 207.56L199 213.9ZM196 211L208.98 203.5V196H206.98V202.35L196 208.69V210.99V211ZM196 229.5L208.98 237V245H206.98V238.15L196 231.81V229.51V229.5ZM211 196V203.5L223.99 211H224V208.69H223.99L213 202.35V196H211ZM211 245V237L223.99 229.5H224V231.81H223.99L213 238.15V245H211Z" fill="black"/>
<path d="M209.99 254.25L222.99 261.75V276.75L209.99 284.25L197 276.75V261.75L209.99 254.25ZM199 262.9V275.6L209.99 281.94L220.99 275.59V262.9L209.99 256.56L199 262.9ZM196 260L208.98 252.5V245H206.98V251.35L196 257.69V259.99V260ZM196 278.5L208.98 286V294H206.98V287.15L196 280.81V278.51V278.5ZM211 245V252.5L223.99 260H224V257.69H223.99L213 251.35V245H211ZM211 294V286L223.99 278.5H224V280.81H223.99L213 287.15V294H211Z" fill="black"/>
<path d="M237.99 9.25L250.99 16.75V31.75L237.99 39.25L225 31.75V16.75L237.99 9.25ZM227 17.9V30.6L237.99 36.94L248.99 30.59V17.9L237.99 11.56L227 17.9ZM224 15L236.98 7.5V0H234.98V6.35L224 12.69V14.99V15ZM224 33.5L236.98 41V49H234.98V42.15L224 35.81V33.51V33.5ZM239 0V7.5L251.99 15H252V12.69H251.99L241 6.35V0H239ZM239 49V41L251.99 33.5H252V35.81H251.99L241 42.15V49H239Z" fill="black"/>
<path d="M237.99 58.25L250.99 65.75V80.75L237.99 88.25L225 80.75V65.75L237.99 58.25ZM227 66.9V79.6L237.99 85.94L248.99 79.59V66.9L237.99 60.56L227 66.9ZM224 64L236.98 56.5V49H234.98V55.35L224 61.69V63.99V64ZM224 82.5L236.98 90V98H234.98V91.15L224 84.81V82.51V82.5ZM239 49V56.5L251.99 64H252V61.69H251.99L241 55.35V49H239ZM239 98V90L251.99 82.5H252V84.81H251.99L241 91.15V98H239Z" fill="black"/>
<path d="M237.99 107.25L250.99 114.75V129.75L237.99 137.25L225 129.75V114.75L237.99 107.25ZM227 115.9V128.6L237.99 134.94L248.99 128.59V115.9L237.99 109.56L227 115.9ZM224 113L236.98 105.5V98H234.98V104.35L224 110.69V112.99V113ZM224 131.5L236.98 139V147H234.98V140.15L224 133.81V131.51V131.5ZM239 98V105.5L251.99 113H252V110.69H251.99L241 104.35V98H239ZM239 147V139L251.99 131.5H252V133.81H251.99L241 140.15V147H239Z" fill="black"/>
<path d="M237.99 156.25L250.99 163.75V178.75L237.99 186.25L225 178.75V163.75L237.99 156.25ZM227 164.9V177.6L237.99 183.94L248.99 177.59V164.9L237.99 158.56L227 164.9ZM224 162L236.98 154.5V147H234.98V153.35L224 159.69V161.99V162ZM224 180.5L236.98 188V196H234.98V189.15L224 182.81V180.51V180.5ZM239 147V154.5L251.99 162H252V159.69H251.99L241 153.35V147H239ZM239 196V188L251.99 180.5H252V182.81H251.99L241 189.15V196H239Z" fill="black"/>
<path d="M237.99 205.25L250.99 212.75V227.75L237.99 235.25L225 227.75V212.75L237.99 205.25ZM227 213.9V226.6L237.99 232.94L248.99 226.59V213.9L237.99 207.56L227 213.9ZM224 211L236.98 203.5V196H234.98V202.35L224 208.69V210.99V211ZM224 229.5L236.98 237V245H234.98V238.15L224 231.81V229.51V229.5ZM239 196V203.5L251.99 211H252V208.69H251.99L241 202.35V196H239ZM239 245V237L251.99 229.5H252V231.81H251.99L241 238.15V245H239Z" fill="black"/>
<path d="M237.99 254.25L250.99 261.75V276.75L237.99 284.25L225 276.75V261.75L237.99 254.25ZM227 262.9V275.6L237.99 281.94L248.99 275.59V262.9L237.99 256.56L227 262.9ZM224 260L236.98 252.5V245H234.98V251.35L224 257.69V259.99V260ZM224 278.5L236.98 286V294H234.98V287.15L224 280.81V278.51V278.5ZM239 245V252.5L251.99 260H252V257.69H251.99L241 251.35V245H239ZM239 294V286L251.99 278.5H252V280.81H251.99L241 287.15V294H239Z" fill="black"/>
<path d="M265.99 9.25L278.99 16.75V31.75L265.99 39.25L253 31.75V16.75L265.99 9.25ZM255 17.9V30.6L265.99 36.94L276.99 30.59V17.9L265.99 11.56L255 17.9ZM252 15L264.98 7.5V0H262.98V6.35L252 12.69V14.99V15ZM252 33.5L264.98 41V49H262.98V42.15L252 35.81V33.51V33.5ZM267 0V7.5L279.99 15H280V12.69H279.99L269 6.35V0H267ZM267 49V41L279.99 33.5H280V35.81H279.99L269 42.15V49H267Z" fill="black"/>
<path d="M265.99 58.25L278.99 65.75V80.75L265.99 88.25L253 80.75V65.75L265.99 58.25ZM255 66.9V79.6L265.99 85.94L276.99 79.59V66.9L265.99 60.56L255 66.9ZM252 64L264.98 56.5V49H262.98V55.35L252 61.69V63.99V64ZM252 82.5L264.98 90V98H262.98V91.15L252 84.81V82.51V82.5ZM267 49V56.5L279.99 64H280V61.69H279.99L269 55.35V49H267ZM267 98V90L279.99 82.5H280V84.81H279.99L269 91.15V98H267Z" fill="black"/>
<path d="M265.99 107.25L278.99 114.75V129.75L265.99 137.25L253 129.75V114.75L265.99 107.25ZM255 115.9V128.6L265.99 134.94L276.99 128.59V115.9L265.99 109.56L255 115.9ZM252 113L264.98 105.5V98H262.98V104.35L252 110.69V112.99V113ZM252 131.5L264.98 139V147H262.98V140.15L252 133.81V131.51V131.5ZM267 98V105.5L279.99 113H280V110.69H279.99L269 104.35V98H267ZM267 147V139L279.99 131.5H280V133.81H279.99L269 140.15V147H267Z" fill="black"/>
<path d="M265.99 156.25L278.99 163.75V178.75L265.99 186.25L253 178.75V163.75L265.99 156.25ZM255 164.9V177.6L265.99 183.94L276.99 177.59V164.9L265.99 158.56L255 164.9ZM252 162L264.98 154.5V147H262.98V153.35L252 159.69V161.99V162ZM252 180.5L264.98 188V196H262.98V189.15L252 182.81V180.51V180.5ZM267 147V154.5L279.99 162H280V159.69H279.99L269 153.35V147H267ZM267 196V188L279.99 180.5H280V182.81H279.99L269 189.15V196H267Z" fill="black"/>
<path d="M265.99 205.25L278.99 212.75V227.75L265.99 235.25L253 227.75V212.75L265.99 205.25ZM255 213.9V226.6L265.99 232.94L276.99 226.59V213.9L265.99 207.56L255 213.9ZM252 211L264.98 203.5V196H262.98V202.35L252 208.69V210.99V211ZM252 229.5L264.98 237V245H262.98V238.15L252 231.81V229.51V229.5ZM267 196V203.5L279.99 211H280V208.69H279.99L269 202.35V196H267ZM267 245V237L279.99 229.5H280V231.81H279.99L269 238.15V245H267Z" fill="black"/>
<path d="M265.99 254.25L278.99 261.75V276.75L265.99 284.25L253 276.75V261.75L265.99 254.25ZM255 262.9V275.6L265.99 281.94L276.99 275.59V262.9L265.99 256.56L255 262.9ZM252 260L264.98 252.5V245H262.98V251.35L252 257.69V259.99V260ZM252 278.5L264.98 286V294H262.98V287.15L252 280.81V278.51V278.5ZM267 245V252.5L279.99 260H280V257.69H279.99L269 251.35V245H267ZM267 294V286L279.99 278.5H280V280.81H279.99L269 287.15V294H267Z" fill="black"/>
</g>
</svg>
