<svg width="344" height="285" viewBox="0 0 344 285" fill="none" xmlns="http://www.w3.org/2000/svg">
<g clip-path="url(#clip0_103_206)">
<path opacity="0.6" d="M512 186.261C512.028 201.069 507.984 215.599 500.31 228.264C500.31 243.753 493.086 257.793 481.37 268.025C478.437 270.583 475.279 272.871 471.935 274.862C471.801 274.947 471.662 275.027 471.523 275.108C471.273 275.255 471.022 275.403 470.767 275.555L470.53 275.694C469.46 276.298 468.368 276.88 467.254 277.425C456.984 282.473 445.686 285.077 434.242 285.031H97.195C94.5097 285.031 91.8482 284.924 89.2106 284.709C79.8373 283.971 70.6267 281.839 61.8831 278.383C60.1764 277.709 58.5026 276.984 56.8615 276.208C56.0798 275.842 55.3055 275.464 54.5387 275.076C54.0599 274.835 53.581 274.584 53.1066 274.334C50.2281 272.804 47.4397 271.11 44.7552 269.26C42.3019 267.582 39.9413 265.771 37.6839 263.838C22.4537 250.773 13.0327 232.693 13.0327 212.743C4.49593 199.602 -0.0323002 184.262 3.79402e-06 168.593C3.79402e-06 124.237 35.4641 88.2784 79.2168 88.2784C80.5594 88.2784 81.9021 88.3187 83.2448 88.3903C83.4372 88.3903 83.6252 88.3903 83.8176 88.4171C91.1933 75.8494 101.053 64.3017 112.909 54.1366C145.24 26.4419 192.492 8.98399 245.129 8.98399C289.356 8.98399 329.783 21.3101 360.75 41.6762C372.484 35.0451 385.738 31.569 399.217 31.5871C442.961 31.5871 478.434 67.5454 478.434 111.902C478.427 114.708 478.278 117.513 477.986 120.304C488.531 127.766 497.125 137.654 503.045 149.133C508.965 160.612 512.036 173.346 512 186.261Z" fill="white"/>
<path opacity="0.6" d="M407.582 122.577V117.776C411.338 116.252 414.447 113.469 416.377 109.905C418.306 106.341 418.937 102.217 418.16 98.2399C417.383 94.2624 415.247 90.6786 412.118 88.1021C408.989 85.5256 405.061 84.1168 401.007 84.1168C396.953 84.1168 393.025 85.5256 389.896 88.1021C386.767 90.6786 384.631 94.2624 383.854 98.2399C383.077 102.217 383.708 106.341 385.637 109.905C387.567 113.469 390.676 116.252 394.432 117.776V122.577C390.054 123.794 386.097 126.199 383.002 129.525C379.724 124.608 374.787 121.032 369.092 119.449V114.644C372.848 113.12 375.957 110.337 377.887 106.773C379.817 103.209 380.447 99.0855 379.67 95.108C378.894 91.1305 376.758 87.5467 373.628 84.9702C370.499 82.3938 366.571 80.9849 362.517 80.9849C358.464 80.9849 354.536 82.3938 351.407 84.9702C348.277 87.5467 346.141 91.1305 345.364 95.108C344.588 99.0855 345.218 103.209 347.148 106.773C349.078 110.337 352.187 113.12 355.943 114.644V119.445C352.049 120.526 348.482 122.548 345.555 125.333C342.289 120.951 337.659 117.778 332.393 116.313V111.512C336.149 109.988 339.258 107.205 341.188 103.641C343.118 100.077 343.748 95.9536 342.971 91.9761C342.194 87.9986 340.058 84.4148 336.929 81.8384C333.8 79.2619 329.872 77.8531 325.818 77.8531C321.764 77.8531 317.836 79.2619 314.707 81.8384C311.578 84.4148 309.442 87.9986 308.665 91.9761C307.888 95.9536 308.519 100.077 310.449 103.641C312.378 107.205 315.487 109.988 319.244 111.512V116.313C314.764 117.561 310.729 120.053 307.607 123.499C306.216 119.932 304.012 116.738 301.171 114.171C298.33 111.603 294.93 109.733 291.24 108.707V103.906C294.996 102.382 298.106 99.5994 300.035 96.0354C301.965 92.4715 302.596 88.3477 301.819 84.3702C301.042 80.3927 298.906 76.8089 295.777 74.2324C292.647 71.6559 288.72 70.2471 284.666 70.2471C280.612 70.2471 276.684 71.6559 273.555 74.2324C270.426 76.8089 268.29 80.3927 267.513 84.3702C266.736 88.3477 267.366 92.4715 269.296 96.0354C271.226 99.5994 274.335 102.382 278.091 103.906V108.707C273.295 110.042 269.017 112.799 265.821 116.615C262.625 120.431 260.661 125.126 260.189 130.08C257.93 128.512 255.423 127.337 252.773 126.604V121.803C256.529 120.278 259.638 117.496 261.568 113.932C263.498 110.368 264.128 106.244 263.352 102.267C262.575 98.289 260.439 94.7052 257.31 92.1288C254.18 89.5523 250.252 88.1435 246.199 88.1435C242.145 88.1435 238.217 89.5523 235.088 92.1288C231.958 94.7052 229.823 98.289 229.046 102.267C228.269 106.244 228.899 110.368 230.829 113.932C232.759 117.496 235.868 120.278 239.624 121.803V126.604C236.281 127.534 233.172 129.159 230.499 131.371C227.826 133.584 225.65 136.334 224.112 139.444C222.038 138.112 219.775 137.101 217.399 136.447V131.646C221.155 130.121 224.264 127.339 226.194 123.775C228.123 120.211 228.754 116.087 227.977 112.11C227.2 108.132 225.064 104.548 221.935 101.972C218.806 99.3953 214.878 97.9865 210.824 97.9865C206.77 97.9865 202.842 99.3953 199.713 101.972C196.584 104.548 194.448 108.132 193.671 112.11C192.894 116.087 193.525 120.211 195.454 123.775C197.384 127.339 200.493 130.121 204.249 131.646V136.447C202.007 137.065 199.866 138.002 197.89 139.229C196.341 136.171 194.172 133.468 191.52 131.294C188.869 129.12 185.793 127.523 182.489 126.604V121.803C186.246 120.278 189.355 117.496 191.285 113.932C193.214 110.368 193.845 106.244 193.068 102.267C192.291 98.289 190.155 94.7052 187.026 92.1288C183.897 89.5523 179.969 88.1435 175.915 88.1435C171.861 88.1435 167.933 89.5523 164.804 92.1288C161.675 94.7052 159.539 98.289 158.762 102.267C157.985 106.244 158.615 110.368 160.545 113.932C162.475 117.496 165.584 120.278 169.34 121.803V126.604C165.785 127.592 162.497 129.366 159.718 131.795C156.94 134.223 154.742 137.244 153.287 140.634C150.784 138.714 147.935 137.292 144.895 136.447V131.646C148.651 130.121 151.76 127.339 153.69 123.775C155.62 120.211 156.25 116.087 155.474 112.11C154.697 108.132 152.561 104.548 149.431 101.972C146.302 99.3953 142.374 97.9865 138.321 97.9865C134.267 97.9865 130.339 99.3953 127.21 101.972C124.08 104.548 121.944 108.132 121.168 112.11C120.391 116.087 121.021 120.211 122.951 123.775C124.881 127.339 127.99 130.121 131.746 131.646V136.447C126.559 137.884 121.986 140.981 118.728 145.263C115.47 149.546 113.705 154.779 113.705 160.159V271.117H162.909V261.274H186.182V271.117H235.413V261.274H270.769V243.377H301.203V250.983H337.902V254.115H376.392V257.247H425.622V146.29C425.622 140.909 423.858 135.677 420.599 131.394C417.341 127.111 412.768 124.014 407.582 122.577Z" fill="white"/>
<path d="M219.65 75.6122H260.57C270.578 75.6117 280.488 77.5818 289.735 81.4102C298.982 85.2386 307.383 90.8502 314.46 97.9247C321.538 104.999 327.152 113.398 330.982 122.641C334.812 131.885 336.783 141.792 336.783 151.797V255.024H143.441V151.797C143.441 131.592 151.47 112.214 165.762 97.9263C180.054 83.6388 199.438 75.6122 219.65 75.6122Z" fill="#3A2E41"/>
<path opacity="0.2" d="M224.125 79.7642H256.094C266.102 79.7636 276.013 81.7338 285.259 85.5622C294.506 89.3905 302.908 95.0022 309.985 102.077C317.062 109.151 322.676 117.55 326.506 126.793C330.336 136.037 332.308 145.944 332.308 155.949V250.867H147.916V155.949C147.916 135.744 155.945 116.366 170.237 102.078C184.529 87.7908 203.913 79.7642 224.125 79.7642Z" fill="black"/>
<path d="M467.245 269.605V277.416C456.975 282.464 445.677 285.068 434.233 285.022H97.195C94.5097 285.022 91.8482 284.915 89.2106 284.7C79.8374 283.962 70.6267 281.83 61.8831 278.374C60.1764 277.7 58.5026 276.975 56.8615 276.199C56.0798 275.833 55.3056 275.455 54.5387 275.068C54.0599 274.826 53.581 274.575 53.1066 274.325C50.2283 272.798 47.4399 271.107 44.7552 269.26V248.044C44.7552 244.615 46.118 241.326 48.5436 238.901C50.9693 236.476 54.2591 235.114 57.6895 235.114H429.709C432.838 235.12 435.859 236.259 438.212 238.322L462.827 259.887C464.214 261.098 465.325 262.592 466.087 264.268C466.849 265.944 467.244 267.764 467.245 269.605Z" fill="#3A2E41"/>
<path d="M216.02 101.03C206.261 101.674 196.538 102.718 186.853 104.161C184.101 104.573 181.308 105.029 178.797 106.246C176.846 107.268 175.047 108.557 173.453 110.076C166.264 116.515 160.475 124.362 156.446 133.131C153.954 138.567 152.163 144.316 149.814 149.797C141.449 169.371 126.277 185.38 117.447 204.748C115.536 208.94 113.924 213.316 113.284 217.875C112.622 222.591 113.374 228.094 117.25 230.85C119.04 232.116 121.215 232.64 123.345 233.087C150.163 239.024 177.293 243.453 204.608 246.353C201.649 243.498 200.66 239.073 201.049 234.984C201.439 230.895 203.046 227.029 204.63 223.24C189.171 219.83 173.752 216.251 158.371 212.502C156.075 211.942 153.318 210.891 153.036 208.547C152.893 207.352 153.484 206.202 154.065 205.151C160.625 193.276 168.491 182.171 177.517 172.042C177.517 184.597 176.895 198.775 176.895 211.334H321.947C320.202 204.168 319.177 196.847 318.886 189.478C318.21 165.425 326.31 141.556 324.207 117.552C324.01 115.338 323.706 113.056 322.547 111.159C320.546 107.884 316.554 106.528 312.884 105.41C298.813 101.132 284.446 96.806 269.74 97.1416C265.367 97.2445 261.013 97.7546 256.667 98.2691C243.424 99.8305 229.326 100.148 216.02 101.03Z" fill="#EF798A"/>
<path d="M148.086 245.324L158.648 279.117C158.716 279.331 158.85 279.518 159.031 279.65C159.212 279.783 159.431 279.855 159.655 279.855H204.979L194.238 240.483L149.008 243.959C148.851 243.972 148.698 244.02 148.562 244.1C148.425 244.18 148.308 244.289 148.22 244.42C148.131 244.551 148.073 244.701 148.05 244.857C148.027 245.013 148.039 245.173 148.086 245.324Z" fill="#716478"/>
<path d="M225.566 115.561C223.597 116.693 221.301 117.101 219.063 117.49L204.621 119.995C201.81 120.483 198.852 121.038 196.686 122.895C192.255 126.684 193.213 133.659 194.556 139.332L197.241 150.714C199.264 159.269 201.331 167.926 205.48 175.675C212.726 189.201 226.018 198.941 240.636 203.634C245.858 205.312 251.377 206.404 256.828 205.804C267.507 204.632 276.641 197.021 282.271 187.872C287.902 178.722 290.582 168.11 293.039 157.649C295.398 147.636 297.64 137.48 297.488 127.19C297.443 123.986 297.121 120.64 295.411 117.924C291.665 111.96 283.175 111.512 276.216 112.613C275.133 112.788 274.009 112.975 272.967 112.649C269.834 111.673 269.762 107.374 268.42 104.39C265.882 98.7612 258.354 97.7635 252.2 98.2735C246.046 98.7836 236.464 99.4413 231.103 102.927C225.947 106.26 231.613 112.076 225.566 115.561Z" fill="#FBBFBE"/>
<path opacity="0.1" d="M225.566 115.561C223.597 116.693 221.301 117.101 219.063 117.49L204.621 119.995C201.81 120.483 198.852 121.038 196.686 122.895C192.255 126.684 193.213 133.659 194.556 139.332L197.241 150.714C199.264 159.269 201.331 167.926 205.48 175.675C212.726 189.201 226.018 198.941 240.636 203.634C245.858 205.312 251.377 206.404 256.828 205.804C267.507 204.632 276.641 197.021 282.271 187.872C287.902 178.722 290.582 168.11 293.039 157.649C295.398 147.636 297.64 137.48 297.488 127.19C297.443 123.986 297.121 120.64 295.411 117.924C291.665 111.96 283.175 111.512 276.216 112.613C275.133 112.788 274.009 112.975 272.967 112.649C269.834 111.673 269.762 107.374 268.42 104.39C265.882 98.7612 258.354 97.7635 252.2 98.2735C246.046 98.7836 236.464 99.4413 231.103 102.927C225.947 106.26 231.613 112.076 225.566 115.561Z" fill="black"/>
<path d="M213.612 128.384C215.796 132.966 217.434 137.825 220.075 142.16C222.174 145.605 224.864 148.643 227.54 151.663C234.473 159.502 241.495 167.403 250.074 173.371C253.627 155.124 262.21 138.233 274.855 124.604C278.552 120.635 283.18 116.725 288.604 116.872C291.97 116.966 295.076 118.635 297.878 120.492C301.01 122.563 303.973 124.966 306.224 127.95C309.782 132.702 311.317 138.719 311.595 144.648C311.872 150.576 310.95 156.491 310.037 162.352L305.338 192.646C305.065 194.4 304.685 196.337 303.253 197.388C302.439 197.903 301.522 198.233 300.567 198.355C283.484 201.679 265.877 199.522 248.472 199.352C229.227 199.169 209.45 201.361 191.221 195.241C190.268 194.919 189.279 194.547 188.634 193.782C188.211 193.205 187.907 192.55 187.739 191.854C183.492 178.109 186.898 163.34 189.418 149.18C191.413 137.958 192.833 126.642 193.674 115.275C193.75 114.251 205.01 116.514 206.268 117.239C209.692 119.266 211.965 124.93 213.612 128.384Z" fill="#EF798A"/>
<g opacity="0.2">
<path opacity="0.2" d="M74.6831 240.165C74.6831 240.371 74.6607 240.572 74.6383 240.769C72.9317 240.095 71.2578 239.37 69.6168 238.595C68.7401 238.479 67.9248 238.082 67.294 237.463C66.8151 237.221 66.3362 236.971 65.8618 236.72C65.9692 236.495 66.0903 236.277 66.2243 236.067C67.1463 234.608 68.5471 233.696 70.0912 233.745C71.6352 233.794 72.9734 234.792 73.8014 236.299C74.4346 237.486 74.739 238.821 74.6831 240.165Z" fill="#4D3D57"/>
<path opacity="0.2" d="M74.9248 232.505C74.8943 233.847 74.5065 235.157 73.8014 236.299C72.8794 237.754 71.4786 238.666 69.9345 238.617L69.6168 238.595C68.7401 238.479 67.9248 238.082 67.294 237.463C66.8662 237.057 66.5052 236.585 66.2243 236.067C65.6067 234.876 65.3046 233.546 65.347 232.205C65.3893 230.865 65.7745 229.557 66.466 228.407C67.388 226.949 68.7888 226.036 70.3329 226.085C71.8769 226.134 73.2151 227.132 74.0431 228.64C74.6763 229.827 74.9807 231.161 74.9248 232.505Z" fill="#4D3D57"/>
<path opacity="0.2" d="M75.1663 224.857C75.2757 221.397 73.2214 218.525 70.5779 218.441C67.9344 218.358 65.7028 221.095 65.5934 224.555C65.4841 228.015 67.5383 230.888 70.1818 230.971C72.8253 231.055 75.0569 228.317 75.1663 224.857Z" fill="#4D3D57"/>
<path opacity="0.2" d="M75.4105 217.198C75.5198 213.738 73.4656 210.865 70.8221 210.781C68.1786 210.698 65.947 213.435 65.8376 216.895C65.7282 220.355 67.7825 223.228 70.426 223.312C73.0695 223.395 75.3011 220.658 75.4105 217.198Z" fill="#4D3D57"/>
<path opacity="0.2" d="M75.6502 209.538C75.7595 206.078 73.7052 203.205 71.0618 203.121C68.4183 203.038 66.1867 205.775 66.0773 209.235C65.9679 212.695 68.0222 215.568 70.6657 215.652C73.3092 215.735 75.5408 212.998 75.6502 209.538Z" fill="#4D3D57"/>
<path opacity="0.6" d="M54.6015 156.392C53.9712 155.539 53.4029 154.642 52.9008 153.708L65.5486 152.039L51.9162 151.717C50.7012 148.836 50.0869 145.737 50.1107 142.611C50.1346 139.485 50.7961 136.396 52.0549 133.534L70.0107 143.574L53.5631 130.67C55.2224 127.988 57.4171 125.676 60.0102 123.879C62.6034 122.082 65.5393 120.839 68.6345 120.228C71.7298 119.617 74.9179 119.65 77.9998 120.325C81.0817 121.001 83.9911 122.304 86.5464 124.155C89.1016 126.005 91.2478 128.362 92.851 131.078C94.4541 133.795 95.4797 136.813 95.8637 139.943C96.2477 143.074 95.9819 146.25 95.0828 149.274C94.1838 152.297 92.6708 155.103 90.6384 157.515C91.6178 158.843 92.4506 160.272 93.1223 161.779L76.5315 169.761L94.1338 164.468C95.2427 168.123 95.4224 171.997 94.6566 175.739C93.8907 179.481 92.2036 182.973 89.7478 185.899C92.3041 189.366 93.8328 193.482 94.1588 197.776C94.4848 202.071 93.5951 206.37 91.5914 210.183C89.5876 213.996 86.5508 217.168 82.8284 219.336C79.1059 221.504 74.8481 222.581 70.5421 222.444C66.236 222.306 62.0555 220.96 58.4789 218.559C54.9024 216.158 52.0741 212.799 50.3176 208.866C48.5612 204.934 47.9475 200.586 48.5467 196.321C49.146 192.056 50.9341 188.046 53.7064 184.749C50.6532 180.607 49.0815 175.558 49.2439 170.416C49.4062 165.273 51.2931 160.334 54.6015 156.392Z" fill="white"/>
<path opacity="0.1" d="M95.1049 171.859C94.9472 177.006 93.0546 181.949 89.7343 185.885C92.2941 189.351 93.8264 193.466 94.1556 197.762C94.4848 202.057 93.5977 206.358 91.5959 210.173C89.594 213.988 86.5582 217.162 82.836 219.333C79.1138 221.503 74.8554 222.582 70.5484 222.446C66.2413 222.31 62.0595 220.965 58.4816 218.564C54.9036 216.164 52.0741 212.804 50.3168 208.871C48.5595 204.937 47.9454 200.589 48.5448 196.323C49.1443 192.057 50.933 188.046 53.7063 184.749C50.739 180.749 95.1855 169.286 95.1049 171.859Z" fill="black"/>
</g>
<path opacity="0.6" d="M30.4425 72.8428C35.7889 72.8428 40.1231 68.51 40.1231 63.1653C40.1231 57.8206 35.7889 53.4878 30.4425 53.4878C25.0961 53.4878 20.762 57.8206 20.762 63.1653C20.762 68.51 25.0961 72.8428 30.4425 72.8428Z" fill="white"/>
<path opacity="0.6" d="M70.7894 19.3549C76.1358 19.3549 80.4699 15.0222 80.4699 9.67747C80.4699 4.33275 76.1358 0 70.7894 0C65.4429 0 61.1088 4.33275 61.1088 9.67747C61.1088 15.0222 65.4429 19.3549 70.7894 19.3549Z" fill="white"/>
<path opacity="0.6" d="M67.5088 62.6418C76.469 62.6418 83.7326 55.3805 83.7326 46.4232C83.7326 37.466 76.469 30.2046 67.5088 30.2046C58.5487 30.2046 51.285 37.466 51.285 46.4232C51.285 55.3805 58.5487 62.6418 67.5088 62.6418Z" fill="white"/>
<path d="M243.021 120.577C263.784 120.577 280.615 103.751 280.615 82.9945C280.615 62.2383 263.784 45.4121 243.021 45.4121C222.258 45.4121 205.427 62.2383 205.427 82.9945C205.427 103.751 222.258 120.577 243.021 120.577Z" fill="#FBBFBE"/>
<path d="M227.75 9.24796C217.721 10.5186 206.895 12.1964 199.805 19.3997C195.84 23.4264 193.517 28.7953 191.606 34.1105C188.643 42.3876 186.437 51.1121 187.131 59.8947C187.748 67.7513 190.657 75.7867 188.303 83.3122C187.22 86.7751 185.094 89.7996 183.443 93.0254C180.382 99.0163 178.94 105.732 178.412 112.439C178.045 117.051 178.117 121.798 179.634 126.17C181.25 130.823 184.401 134.782 186.397 139.283C189.35 145.932 189.646 153.412 189.874 160.683C190.102 167.953 190.295 175.174 190.465 182.418C190.572 186.973 190.581 191.849 188.062 195.648C197.366 191.921 206.801 188.118 214.763 182.033C222.724 175.948 229.169 167.175 230.199 157.206C231.031 149.126 228.301 141.162 225.947 133.386C220.129 114.148 216.369 93.6384 220.603 73.9926C222.129 66.9191 225.839 59.0223 232.96 57.7203C237.306 56.9284 241.642 58.9104 245.559 60.9596C254.814 65.8006 264.356 72.0643 267.802 81.9207C270.935 90.8331 268.299 100.761 264.222 109.271C260.144 117.781 254.595 125.606 251.426 134.5C246.561 148.146 247.931 164.123 256.013 176.145C264.096 188.167 279.031 195.563 293.393 193.621C292.27 188.771 288.747 184.852 286.859 180.243C283.426 171.872 285.74 162.244 289.432 153.985C293.124 145.726 298.164 138.026 300.473 129.257C302.102 123.082 302.299 116.631 302.29 110.246C302.29 100.197 301.794 90.1441 300.827 80.14C299.86 70.1359 298.383 60.0066 295.197 50.3828C292.637 42.665 288.909 35.2022 283.332 29.283C277.397 22.979 269.673 18.7062 262.087 14.5184C257.549 12.0219 252.912 9.49404 247.819 8.55895C243.791 7.82073 239.557 6.76931 235.448 6.7022C232.656 6.66193 229.72 7.26594 227.75 9.24796Z" fill="#3A1D4B"/>
<path d="M298.509 57.7557L274.322 53.0645C273.618 52.928 272.937 53.3876 272.801 54.0911L261.213 113.799C261.076 114.502 261.536 115.183 262.239 115.319L286.426 120.011C287.13 120.147 287.811 119.687 287.948 118.984L299.536 59.2765C299.672 58.5731 299.212 57.8921 298.509 57.7557Z" fill="#716478"/>
<path d="M300.337 58.1103L276.15 53.4191C275.446 53.2827 274.765 53.7423 274.629 54.4457L263.041 114.153C262.904 114.857 263.364 115.538 264.068 115.674L288.254 120.365C288.958 120.502 289.639 120.042 289.776 119.339L301.364 59.6312C301.5 58.9277 301.041 58.2468 300.337 58.1103Z" fill="#4D3D57"/>
<path d="M287.421 69.5964C287.894 67.1586 287.461 65.024 286.454 64.8286C285.447 64.6333 284.247 66.4513 283.774 68.8891C283.301 71.327 283.734 73.4616 284.741 73.6569C285.748 73.8523 286.948 72.0343 287.421 69.5964Z" fill="#EF798A"/>
<path d="M293.147 89.9294C291.965 87.84 290.703 85.679 288.712 84.3412C287.567 83.6392 286.336 83.0874 285.051 82.6992C280.714 81.1825 276.305 79.6523 271.718 79.4107C270.971 79.375 270.116 79.4107 269.628 79.9834C268.625 81.1601 270.214 82.7619 271.588 83.4732L282.517 89.133L272.443 88.0681C270.98 87.9115 268.894 88.3097 269.001 89.7772C269.073 90.7392 270.129 91.2626 271.042 91.5669C277.509 93.8039 284.983 95.5578 288.524 101.41C283.806 100.962 278.986 100.515 274.363 101.553C273.097 101.839 271.785 102.282 270.957 103.28C270.129 104.278 270.035 105.965 271.078 106.756C271.723 107.235 272.591 107.249 273.396 107.204C276.677 107.047 280.043 106.394 283.193 107.329C286.344 108.264 289.141 111.566 288.054 114.662C290.846 114.913 294.149 114.662 296.732 113.459C299.578 112.116 299.511 109.593 299.337 106.551C298.965 100.591 296.007 95.0298 293.147 89.9294Z" fill="#FBBFBE"/>
<path opacity="0.1" d="M290.323 187.46C287.818 169.854 284.382 152.392 280.029 135.149C277.791 126.201 275.249 117.101 275.889 107.893C285.136 109.07 293.42 109.942 301.941 106.166C302.08 111.002 305.589 115.114 306.864 119.789C307.719 122.921 307.397 126.237 307.733 129.462C308.068 132.688 309.075 135.816 309.939 138.952C314.225 154.494 315.235 170.756 312.906 186.709C304.998 187.648 298.213 188.682 290.323 187.46Z" fill="black"/>
<path d="M288.98 187.46C286.476 169.854 283.04 152.392 278.686 135.149C276.449 126.201 273.907 117.101 274.547 107.893C283.793 109.07 292.077 109.942 300.599 106.166C300.737 111.002 304.246 115.114 305.522 119.789C306.376 122.921 306.054 126.237 306.39 129.462C306.726 132.688 307.733 135.816 308.596 138.952C312.882 154.494 313.893 170.756 311.564 186.709C303.655 187.648 296.87 188.682 288.98 187.46Z" fill="#EF798A"/>
<path d="M159.611 274.607L163.992 165.944C164.062 164.217 164.802 162.585 166.055 161.394C167.308 160.203 168.976 159.547 170.705 159.564L343.693 161.22C344.61 161.229 345.515 161.428 346.351 161.803C347.187 162.179 347.937 162.723 348.552 163.402C349.168 164.081 349.637 164.88 349.929 165.749C350.221 166.617 350.33 167.537 350.25 168.45L341.111 272.549C340.967 274.186 340.223 275.711 339.02 276.832C337.818 277.952 336.243 278.587 334.599 278.615L166.373 281.524C165.468 281.539 164.568 281.369 163.731 281.025C162.893 280.681 162.134 280.169 161.501 279.522C160.868 278.874 160.374 278.104 160.049 277.259C159.724 276.414 159.575 275.511 159.611 274.607Z" fill="#4D3D57"/>
<path d="M256.224 217.889C260.426 217.889 263.832 213.882 263.832 208.94C263.832 203.998 260.426 199.992 256.224 199.992C252.022 199.992 248.615 203.998 248.615 208.94C248.615 213.882 252.022 217.889 256.224 217.889Z" fill="#EF798A"/>
<path d="M84.2876 230.796H89.7074C92.6749 230.796 95.5208 231.975 97.6191 234.072C99.7174 236.17 100.896 239.015 100.896 241.982V258.603H73.0987V241.982C73.0987 239.015 74.2776 236.17 76.3759 234.072C78.4742 231.975 81.3201 230.796 84.2876 230.796Z" fill="#4D3D57"/>
<path opacity="0.1" d="M84.2876 230.796H89.7074C92.6749 230.796 95.5208 231.975 97.6191 234.072C99.7174 236.17 100.896 239.015 100.896 241.982V258.603H73.0987V241.982C73.0987 239.015 74.2776 236.17 76.3759 234.072C78.4742 231.975 81.3201 230.796 84.2876 230.796Z" fill="black"/>
<path d="M85.8853 236.912C87.1138 236.912 88.1096 235.917 88.1096 234.689C88.1096 233.461 87.1138 232.465 85.8853 232.465C84.6568 232.465 83.661 233.461 83.661 234.689C83.661 235.917 84.6568 236.912 85.8853 236.912Z" fill="#4D3D57"/>
<path d="M85.8853 234.134C87.1138 234.134 88.1096 233.138 88.1096 231.91C88.1096 230.682 87.1138 229.687 85.8853 229.687C84.6568 229.687 83.661 230.682 83.661 231.91C83.661 233.138 84.6568 234.134 85.8853 234.134Z" fill="#4D3D57"/>
<path d="M85.8853 231.351C87.1138 231.351 88.1096 230.356 88.1096 229.127C88.1096 227.899 87.1138 226.904 85.8853 226.904C84.6568 226.904 83.661 227.899 83.661 229.127C83.661 230.356 84.6568 231.351 85.8853 231.351Z" fill="#4D3D57"/>
<path d="M85.8853 228.573C87.1138 228.573 88.1096 227.577 88.1096 226.349C88.1096 225.121 87.1138 224.125 85.8853 224.125C84.6568 224.125 83.661 225.121 83.661 226.349C83.661 227.577 84.6568 228.573 85.8853 228.573Z" fill="#4D3D57"/>
<path d="M85.8853 225.794C87.1138 225.794 88.1096 224.799 88.1096 223.571C88.1096 222.343 87.1138 221.347 85.8853 221.347C84.6568 221.347 83.661 222.343 83.661 223.571C83.661 224.799 84.6568 225.794 85.8853 225.794Z" fill="#4D3D57"/>
<path d="M85.8853 223.016C87.1138 223.016 88.1096 222.02 88.1096 220.792C88.1096 219.564 87.1138 218.569 85.8853 218.569C84.6568 218.569 83.661 219.564 83.661 220.792C83.661 222.02 84.6568 223.016 85.8853 223.016Z" fill="#4D3D57"/>
<path d="M85.8853 220.237C87.1138 220.237 88.1096 219.242 88.1096 218.014C88.1096 216.786 87.1138 215.79 85.8853 215.79C84.6568 215.79 83.661 216.786 83.661 218.014C83.661 219.242 84.6568 220.237 85.8853 220.237Z" fill="#4D3D57"/>
<path d="M89.2241 221.347C90.4525 221.347 91.4484 220.351 91.4484 219.123C91.4484 217.895 90.4525 216.9 89.2241 216.9C87.9956 216.9 86.9997 217.895 86.9997 219.123C86.9997 220.351 87.9956 221.347 89.2241 221.347Z" fill="#4D3D57"/>
<path d="M91.4484 220.237C92.6769 220.237 93.6727 219.242 93.6727 218.014C93.6727 216.786 92.6769 215.79 91.4484 215.79C90.2199 215.79 89.2241 216.786 89.2241 218.014C89.2241 219.242 90.2199 220.237 91.4484 220.237Z" fill="#4D3D57"/>
<path d="M93.6727 219.123C94.9012 219.123 95.8971 218.128 95.8971 216.9C95.8971 215.672 94.9012 214.676 93.6727 214.676C92.4443 214.676 91.4484 215.672 91.4484 216.9C91.4484 218.128 92.4443 219.123 93.6727 219.123Z" fill="#4D3D57"/>
<path d="M85.8853 217.459C87.1138 217.459 88.1096 216.463 88.1096 215.235C88.1096 214.007 87.1138 213.012 85.8853 213.012C84.6568 213.012 83.661 214.007 83.661 215.235C83.661 216.463 84.6568 217.459 85.8853 217.459Z" fill="#4D3D57"/>
<path d="M85.8853 214.681C87.1138 214.681 88.1096 213.685 88.1096 212.457C88.1096 211.229 87.1138 210.233 85.8853 210.233C84.6568 210.233 83.661 211.229 83.661 212.457C83.661 213.685 84.6568 214.681 85.8853 214.681Z" fill="#4D3D57"/>
<path d="M85.8853 211.898C87.1138 211.898 88.1096 210.902 88.1096 209.674C88.1096 208.446 87.1138 207.45 85.8853 207.45C84.6568 207.45 83.661 208.446 83.661 209.674C83.661 210.902 84.6568 211.898 85.8853 211.898Z" fill="#4D3D57"/>
<path d="M85.8853 209.119C87.1138 209.119 88.1096 208.124 88.1096 206.896C88.1096 205.668 87.1138 204.672 85.8853 204.672C84.6568 204.672 83.661 205.668 83.661 206.896C83.661 208.124 84.6568 209.119 85.8853 209.119Z" fill="#4D3D57"/>
<path d="M95.1049 199.728C94.5544 199.809 93.9994 199.867 93.4445 199.903C93.9623 199.45 94.4428 198.956 94.8811 198.426C94.5714 197.492 94.1185 196.612 93.5385 195.818C92.9871 196.127 92.3776 196.319 91.7482 196.382C91.1978 196.462 90.6428 196.52 90.0878 196.561C90.8173 195.965 91.4976 195.071 92.2137 194.323C90.5588 192.823 88.4253 191.959 86.1926 191.883C83.96 191.808 81.7729 192.526 80.0204 193.911C78.2678 195.296 77.0634 197.257 76.6213 199.446C76.1792 201.635 76.5281 203.91 77.6059 205.866C78.6838 207.822 80.4206 209.333 82.5077 210.129C84.5948 210.926 86.8967 210.956 89.0042 210.215C91.1117 209.475 92.888 208.011 94.0174 206.084C95.1467 204.157 95.5559 201.892 95.172 199.692L95.1049 199.728Z" fill="#EF798A"/>
<path d="M102.539 210.775C101.971 211.123 101.331 211.336 100.668 211.397C100.117 211.477 99.5625 211.54 99.0075 211.576C99.5974 211.047 100.148 210.475 100.655 209.867C99.3134 209.517 97.8902 209.68 96.6629 210.324C95.4357 210.968 94.4928 212.046 94.0185 213.348C93.5442 214.649 93.5727 216.081 94.0983 217.363C94.624 218.645 95.609 219.685 96.8609 220.28C98.1127 220.874 99.5413 220.98 100.867 220.578C102.194 220.175 103.322 219.293 104.032 218.103C104.742 216.913 104.982 215.501 104.706 214.143C104.43 212.786 103.657 211.58 102.539 210.761V210.775Z" fill="#EF798A"/>
<path d="M82.551 221.347C83.7795 221.347 84.7754 220.351 84.7754 219.123C84.7754 217.895 83.7795 216.9 82.551 216.9C81.3226 216.9 80.3267 217.895 80.3267 219.123C80.3267 220.351 81.3226 221.347 82.551 221.347Z" fill="#4D3D57"/>
<path d="M80.3267 220.237C81.5552 220.237 82.551 219.242 82.551 218.014C82.551 216.786 81.5552 215.79 80.3267 215.79C79.0982 215.79 78.1024 216.786 78.1024 218.014C78.1024 219.242 79.0982 220.237 80.3267 220.237Z" fill="#4D3D57"/>
<path d="M78.1024 219.123C79.3308 219.123 80.3267 218.128 80.3267 216.9C80.3267 215.672 79.3308 214.676 78.1024 214.676C76.8739 214.676 75.878 215.672 75.878 216.9C75.878 218.128 76.8739 219.123 78.1024 219.123Z" fill="#4D3D57"/>
<path d="M69.2364 210.775C69.8036 211.124 70.4439 211.336 71.1071 211.397C71.6576 211.477 72.2126 211.54 72.7676 211.576C72.1766 211.048 71.6261 210.477 71.1206 209.867C72.4617 209.517 73.8849 209.68 75.1122 210.324C76.3394 210.968 77.2823 212.046 77.7566 213.348C78.2309 214.649 78.2024 216.081 77.6768 217.363C77.1511 218.645 76.1661 219.685 74.9142 220.28C73.6624 220.874 72.2338 220.98 70.9076 220.578C69.5815 220.175 68.4532 219.293 67.7434 218.103C67.0335 216.913 66.7932 215.501 67.0693 214.143C67.3454 212.786 68.1181 211.58 69.2364 210.761V210.775Z" fill="#EF798A"/>
<path d="M84.2876 232.465H89.7074C92.6749 232.465 95.5208 233.644 97.6191 235.741C99.7174 237.839 100.896 240.684 100.896 243.65V258.357C100.896 258.86 100.696 259.342 100.34 259.698C99.9846 260.054 99.5019 260.254 98.9986 260.254H74.9964C74.4931 260.254 74.0104 260.054 73.6545 259.698C73.2987 259.342 73.0987 258.86 73.0987 258.357V243.65C73.0987 240.684 74.2776 237.839 76.3759 235.741C78.4742 233.644 81.3201 232.465 84.2876 232.465Z" fill="#4D3D57"/>
<g opacity="0.1">
<path opacity="0.1" d="M95.275 200.337C95.0498 200.577 94.8107 200.804 94.5589 201.017C94.814 201.017 95.0646 200.976 95.3197 200.95C95.3287 200.744 95.2973 200.538 95.275 200.337Z" fill="black"/>
<path opacity="0.1" d="M91.2201 197.679C91.7796 197.643 92.3301 197.585 92.885 197.505C93.3829 197.441 93.8695 197.309 94.3306 197.111C94.1053 196.663 93.8449 196.234 93.5519 195.827C93.2735 195.996 92.972 196.124 92.6568 196.207C92.2179 196.735 91.7375 197.227 91.2201 197.679Z" fill="black"/>
<path opacity="0.1" d="M77.5474 202.453C77.5441 200.757 77.9984 199.091 78.8626 197.631C79.7267 196.171 80.9687 194.972 82.4577 194.158C83.9467 193.345 85.6275 192.948 87.3232 193.009C89.0189 193.071 90.6666 193.588 92.0929 194.507L92.2361 194.355C91.3053 193.527 90.2198 192.891 89.0421 192.485C87.8645 192.078 86.618 191.908 85.3745 191.985C84.131 192.062 82.915 192.385 81.7966 192.934C80.6783 193.483 79.6796 194.247 78.8582 195.184C78.0369 196.12 77.409 197.21 77.0108 198.39C76.6126 199.571 76.4519 200.818 76.5381 202.06C76.6243 203.303 76.9555 204.516 77.5128 205.63C78.0701 206.744 78.8424 207.737 79.7852 208.551C78.3377 206.849 77.5444 204.687 77.5474 202.453Z" fill="black"/>
</g>
<g opacity="0.1">
<path opacity="0.1" d="M99.0076 212.685C99.5625 212.649 100.117 212.591 100.668 212.511C101.331 212.448 101.971 212.234 102.539 211.884C103.167 212.347 103.691 212.937 104.077 213.615C104.462 214.293 104.701 215.045 104.777 215.822C104.798 215.627 104.809 215.431 104.808 215.235C104.812 214.366 104.612 213.509 104.223 212.731C103.834 211.954 103.268 211.279 102.57 210.761C102.003 211.11 101.362 211.322 100.699 211.383L100.252 211.441C99.8698 211.888 99.4538 212.303 99.0076 212.685Z" fill="black"/>
<path opacity="0.1" d="M99.2313 210.788C99.417 210.79 99.6023 210.804 99.7863 210.828C100.077 210.52 100.364 210.189 100.655 209.866C99.8317 209.647 98.9694 209.619 98.1343 209.786C97.2992 209.953 96.5137 210.31 95.8387 210.829C95.1637 211.348 94.6172 212.016 94.2416 212.78C93.866 213.544 93.6714 214.384 93.6727 215.235C93.6727 215.423 93.6727 215.607 93.6996 215.79C93.8372 214.419 94.4794 213.148 95.5016 212.224C96.5238 211.3 97.853 210.788 99.2313 210.788Z" fill="black"/>
</g>
<g opacity="0.1">
<path opacity="0.1" d="M72.7675 212.685C72.2126 212.649 71.6576 212.591 71.1071 212.511C70.4435 212.449 69.8033 212.235 69.2364 211.884C68.608 212.347 68.084 212.937 67.6985 213.615C67.3129 214.293 67.0745 215.045 66.9986 215.822C66.9769 215.627 66.9664 215.431 66.9673 215.235C66.9631 214.366 67.1634 213.509 67.5522 212.731C67.9409 211.954 68.5071 211.279 69.205 210.761C69.7722 211.11 70.4126 211.323 71.0758 211.383L71.5233 211.441C71.9029 211.89 72.319 212.306 72.7675 212.685Z" fill="black"/>
<path opacity="0.1" d="M72.5438 210.788C72.3567 210.79 72.1698 210.804 71.9843 210.828C71.6979 210.52 71.4115 210.189 71.1206 209.866C71.9434 209.647 72.8057 209.619 73.6408 209.786C74.4759 209.953 75.2614 210.31 75.9364 210.829C76.6114 211.348 77.1579 212.016 77.5335 212.78C77.9091 213.544 78.1037 214.384 78.1024 215.235C78.1024 215.423 78.1024 215.607 78.0755 215.79C77.9379 214.419 77.2957 213.148 76.2735 212.224C75.2513 211.3 73.9221 210.788 72.5438 210.788Z" fill="black"/>
</g>
</g>
<defs>
<clipPath id="clip0_103_206">
<rect width="512" height="285" fill="white"/>
</clipPath>
</defs>
</svg>
