<svg width="302" height="347" viewBox="0 0 302 347" fill="none" xmlns="http://www.w3.org/2000/svg">
<g clip-path="url(#clip0_253_870)">
<path fill-rule="evenodd" clip-rule="evenodd" d="M171.126 285.708C141.789 289.538 112.591 299.59 84.6394 289.918C50.5488 278.122 8.84233 261.535 0.273521 226.589C-8.3619 191.371 29.152 162.926 45.5681 130.576C58.7877 104.524 61.2868 69.804 86.9606 55.7594C112.24 41.9304 142.768 56.6809 171.126 61.8908C193.874 66.0702 213.497 75.6588 235.414 83.0334C270.079 94.6976 313.064 89.7802 336.715 117.609C363.053 148.599 384.722 198.949 363.286 233.491C340.648 269.973 284.1 258.016 242.584 269.298C218.409 275.867 195.97 282.464 171.126 285.708Z" fill="white" fill-opacity="0.5"/>
<path d="M219.427 96.6358C239.87 96.6358 256.443 80.0601 256.443 59.6129C256.443 39.1657 239.87 22.59 219.427 22.59C198.984 22.59 182.412 39.1657 182.412 59.6129C182.412 80.0601 198.984 96.6358 219.427 96.6358Z" fill="#A0616A"/>
<path d="M191.8 78.1244C191.8 78.1244 198.774 130.708 188.044 136.61C177.315 142.512 251.883 143.049 251.883 143.049C251.883 143.049 235.253 97.4407 242.763 83.49L191.8 78.1244Z" fill="#A0616A"/>
<path d="M306.332 143.315L300.131 171.559L287.018 231.315L286.626 234.588L282.1 272.474L279.09 297.642L277.072 314.548C264.8 320.857 255.905 325.212 255.905 325.212C255.905 325.212 255.14 321.375 253.907 316.467C245.294 319.049 229.358 323.334 215.853 324.19C220.77 329.672 223.031 334.823 219.965 338.624C210.713 350.083 172.518 326.078 159.159 317.126C158.848 319.269 158.73 321.436 158.806 323.601L148.583 315.737L149.595 297.642L151.301 267.026L153.446 228.632C152.769 226.988 152.203 225.301 151.749 223.582C148.618 212.445 144.818 190.207 141.903 171.559C139.558 156.551 137.796 143.868 137.423 141.17C137.373 140.817 137.348 140.636 137.348 140.636L193.941 115.624C197.963 124.953 216.744 127.757 216.744 127.757C232.303 126.685 244.499 118.479 244.499 118.479L306.332 143.315Z" fill="#D0CDE1"/>
<path d="M260.199 314.483C260.199 314.483 257.803 315.304 253.907 316.467C245.294 319.049 229.358 323.334 215.853 324.19C204.225 324.935 194.399 323.142 192.602 315.555C191.832 312.293 192.924 309.609 195.305 307.404C202.413 300.814 220.977 298.453 235.7 297.642C239.858 297.415 243.704 297.31 246.905 297.269C252.341 297.199 255.905 297.31 255.905 297.31L255.991 297.642L260.199 314.483Z" fill="#A0616A"/>
<path d="M188.634 24.5927L181.713 21.8214C181.713 21.8214 196.184 5.88627 216.318 7.27199L210.655 1.03646C210.655 1.03646 224.497 -4.50612 237.08 10.0432C243.695 17.6915 251.349 26.6817 256.12 36.809H263.532L260.439 43.6218L271.266 50.4346L260.153 49.2109C260.815 52.9416 260.917 56.7504 260.454 60.5112C259.978 64.2731 258.058 67.7026 255.101 70.0759V70.0759C255.101 70.0759 246.518 52.3058 246.518 49.5345V56.4628C246.518 56.4628 239.597 50.2273 239.597 46.0704L235.822 50.9202L233.935 43.299L210.655 50.9202L214.43 44.6847L199.959 46.7632L205.622 39.1421C205.622 39.1421 189.263 48.1488 188.634 55.77C188.005 63.3911 183.216 70.6125 183.216 70.6125C183.216 70.6125 170.388 34.9851 188.634 24.5927Z" fill="#2F2E41"/>
<path d="M346.566 273.163C342.796 277.252 333.453 283.409 322.128 290.075C317.915 292.552 313.43 295.104 308.854 297.642C297.936 303.699 286.505 309.7 277.072 314.548C264.8 320.857 255.905 325.212 255.905 325.212C255.905 325.212 255.14 321.375 253.907 316.466C252.256 309.896 249.769 301.403 247.177 297.642C247.086 297.511 246.996 297.39 246.905 297.269C246.15 296.278 245.39 295.699 244.64 295.699L282.1 272.474L298.288 262.435L286.625 234.588L271.998 199.657L280.827 171.559L289.701 143.315H306.332C306.332 143.315 311.839 155.337 318.881 172.103C319.933 174.61 321.02 177.223 322.128 179.922C336.615 215.164 354.675 264.378 346.566 273.163Z" fill="#D0CDE1"/>
<path d="M219.965 338.624C210.713 350.083 172.518 326.078 159.159 317.126C156.249 315.178 154.518 313.944 154.518 313.944L166.739 297.642L170.61 292.481C170.61 292.481 174.073 294.319 179.193 297.31C179.379 297.42 179.565 297.531 179.756 297.642C184.171 300.235 189.713 303.623 195.305 307.404C203.022 312.625 210.824 318.581 215.853 324.19C220.77 329.672 223.031 334.823 219.965 338.624Z" fill="#A0616A"/>
<path d="M179.193 297.31C177.827 297.304 176.463 297.416 175.115 297.642C163.543 299.631 160.13 310.108 159.159 317.126C158.848 319.269 158.73 321.436 158.806 323.601L148.583 315.737L144.858 312.872C135.893 309.745 127.905 304.192 120.979 297.642C114.97 291.859 109.58 285.466 104.896 278.566C100.231 271.765 96.0719 264.63 92.4529 257.219C91.4432 255.151 90.9004 252.886 90.863 250.584C90.8256 248.283 91.2945 246.002 92.2365 243.902L104.896 215.683L123.4 174.439C123.536 173.457 123.685 172.497 123.848 171.559C127.517 150.514 137.348 141.17 137.348 141.17H144.858L149.882 171.559L156.123 209.314L151.749 223.582L141.642 256.534L151.301 267.026L179.193 297.31Z" fill="#D0CDE1"/>
<path d="M187.693 209.344L194.113 216.836C196.498 216.381 198.989 215.847 201.555 215.246L199.711 209.344L204.22 214.605C231.4 207.919 265.09 194.919 265.09 194.919C265.09 194.919 228.718 197.587 201.561 191.652C189.545 189.027 177.183 194.984 172.252 206.254C169.386 212.805 169.836 218.48 180.001 218.48C183.435 218.421 186.86 218.099 190.246 217.516L187.693 209.344Z" fill="#F7A9A8"/>
<path d="M334.058 332.482V335.538C334.059 336.377 333.904 337.208 333.6 337.99C333.464 338.338 333.301 338.675 333.111 338.997C332.511 340.004 331.66 340.838 330.641 341.417C329.622 341.996 328.47 342.3 327.297 342.299H102.52C101.348 342.3 100.196 341.996 99.1768 341.417C98.1576 340.838 97.3063 340.004 96.7064 338.997C96.5166 338.675 96.3533 338.338 96.2181 337.99C95.9137 337.208 95.7583 336.377 95.76 335.538V332.482C95.7598 331.594 95.9345 330.714 96.2742 329.894C96.6138 329.074 97.1118 328.328 97.7395 327.7C98.3673 327.072 99.1126 326.574 99.9329 326.234C100.753 325.895 101.632 325.72 102.52 325.72H115.477V324.295C115.477 324.258 115.484 324.222 115.498 324.187C115.512 324.153 115.533 324.122 115.559 324.096C115.585 324.07 115.617 324.049 115.651 324.035C115.685 324.021 115.722 324.013 115.759 324.014H122.519C122.556 324.013 122.593 324.021 122.627 324.035C122.661 324.049 122.692 324.07 122.718 324.096C122.745 324.122 122.765 324.153 122.779 324.187C122.794 324.222 122.801 324.258 122.801 324.295V325.72H127.024V324.295C127.024 324.258 127.031 324.222 127.045 324.187C127.059 324.153 127.08 324.122 127.106 324.096C127.133 324.07 127.164 324.049 127.198 324.035C127.232 324.021 127.269 324.013 127.306 324.014H134.066C134.103 324.013 134.14 324.021 134.174 324.035C134.208 324.049 134.239 324.07 134.265 324.096C134.292 324.122 134.312 324.153 134.327 324.187C134.341 324.222 134.348 324.258 134.348 324.295V325.72H138.576V324.295C138.576 324.258 138.583 324.222 138.598 324.187C138.612 324.153 138.632 324.122 138.659 324.096C138.685 324.07 138.716 324.049 138.75 324.035C138.784 324.021 138.821 324.013 138.858 324.014H145.618C145.655 324.013 145.692 324.021 145.726 324.035C145.76 324.049 145.792 324.07 145.818 324.096C145.844 324.122 145.865 324.153 145.879 324.187C145.893 324.222 145.9 324.258 145.9 324.295V325.72H150.123V324.295C150.123 324.258 150.131 324.222 150.145 324.187C150.159 324.153 150.18 324.122 150.206 324.096C150.232 324.07 150.263 324.049 150.297 324.035C150.331 324.021 150.368 324.013 150.405 324.014H157.165C157.202 324.013 157.239 324.021 157.273 324.035C157.308 324.049 157.339 324.07 157.365 324.096C157.391 324.122 157.412 324.153 157.426 324.187C157.44 324.222 157.447 324.258 157.447 324.295V325.72H161.671V324.295C161.67 324.258 161.678 324.222 161.692 324.187C161.706 324.153 161.727 324.122 161.753 324.096C161.779 324.07 161.81 324.049 161.844 324.035C161.879 324.021 161.915 324.013 161.952 324.014H168.713C168.75 324.013 168.786 324.021 168.821 324.035C168.855 324.049 168.886 324.07 168.912 324.096C168.938 324.122 168.959 324.153 168.973 324.187C168.987 324.222 168.995 324.258 168.994 324.295V325.72H173.223V324.295C173.223 324.258 173.23 324.222 173.244 324.187C173.258 324.153 173.279 324.122 173.305 324.096C173.331 324.07 173.362 324.049 173.397 324.035C173.431 324.021 173.468 324.013 173.505 324.014H180.265C180.302 324.013 180.338 324.021 180.373 324.035C180.407 324.049 180.438 324.07 180.464 324.096C180.49 324.122 180.511 324.153 180.525 324.187C180.539 324.222 180.547 324.258 180.547 324.295V325.72H184.77V324.295C184.77 324.258 184.777 324.222 184.791 324.187C184.805 324.153 184.826 324.122 184.852 324.096C184.878 324.07 184.91 324.049 184.944 324.035C184.978 324.021 185.015 324.013 185.052 324.014H238.006C238.043 324.013 238.079 324.021 238.114 324.035C238.148 324.049 238.179 324.07 238.205 324.096C238.231 324.122 238.252 324.153 238.266 324.187C238.28 324.222 238.288 324.258 238.288 324.295V325.72H242.516V324.295C242.516 324.258 242.523 324.222 242.537 324.187C242.551 324.153 242.572 324.122 242.598 324.096C242.624 324.07 242.655 324.049 242.69 324.035C242.724 324.021 242.761 324.013 242.798 324.014H249.558C249.632 324.014 249.704 324.044 249.756 324.097C249.809 324.15 249.839 324.221 249.84 324.295V325.72H254.063V324.295C254.063 324.258 254.07 324.222 254.084 324.187C254.098 324.153 254.119 324.122 254.145 324.096C254.172 324.07 254.203 324.049 254.237 324.035C254.271 324.021 254.308 324.013 254.345 324.014H261.105C261.142 324.013 261.179 324.021 261.213 324.035C261.247 324.049 261.278 324.07 261.305 324.096C261.331 324.122 261.351 324.153 261.366 324.187C261.38 324.222 261.387 324.258 261.387 324.295V325.72H265.61V324.295C265.61 324.258 265.617 324.222 265.631 324.187C265.646 324.153 265.666 324.122 265.693 324.096C265.719 324.07 265.75 324.049 265.784 324.035C265.818 324.021 265.855 324.013 265.892 324.014H272.652C272.689 324.013 272.726 324.021 272.76 324.035C272.794 324.049 272.825 324.07 272.852 324.096C272.878 324.122 272.899 324.153 272.913 324.187C272.927 324.222 272.934 324.258 272.934 324.295V325.72H277.162V324.295C277.162 324.258 277.17 324.222 277.184 324.187C277.198 324.153 277.219 324.122 277.245 324.096C277.271 324.07 277.302 324.049 277.336 324.035C277.371 324.021 277.407 324.013 277.444 324.014H284.204C284.278 324.014 284.349 324.045 284.401 324.097C284.453 324.15 284.482 324.221 284.481 324.295V325.72H288.71V324.295C288.709 324.258 288.717 324.222 288.731 324.187C288.745 324.153 288.766 324.122 288.792 324.096C288.818 324.07 288.849 324.049 288.883 324.035C288.918 324.021 288.954 324.013 288.991 324.014H295.752C295.789 324.013 295.825 324.021 295.86 324.035C295.894 324.049 295.925 324.07 295.951 324.096C295.977 324.122 295.998 324.153 296.012 324.187C296.026 324.222 296.034 324.258 296.033 324.295V325.72H300.257V324.295C300.257 324.258 300.264 324.222 300.278 324.187C300.292 324.153 300.313 324.122 300.339 324.096C300.365 324.07 300.396 324.049 300.431 324.035C300.465 324.021 300.502 324.013 300.539 324.014H307.299C307.336 324.013 307.372 324.021 307.407 324.035C307.441 324.049 307.472 324.07 307.498 324.096C307.524 324.122 307.545 324.153 307.559 324.187C307.573 324.222 307.581 324.258 307.581 324.295V325.72H327.297C328.185 325.72 329.064 325.895 329.885 326.234C330.705 326.574 331.45 327.072 332.078 327.7C332.706 328.328 333.204 329.074 333.543 329.894C333.883 330.714 334.058 331.594 334.058 332.482V332.482Z" fill="#3F3D56"/>
<path d="M399.419 337.99H30.4536V338.997H399.419V337.99Z" fill="#3F3D56"/>
<path d="M315.959 203.781H232.177V202.054H194.188V203.781H110.061C108.558 203.781 107.116 204.378 106.054 205.441C104.991 206.504 104.394 207.946 104.394 209.449V324.195C104.394 325.698 104.991 327.14 106.054 328.203C107.116 329.266 108.558 329.863 110.061 329.863H315.959C317.462 329.863 318.903 329.266 319.966 328.203C321.029 327.14 321.626 325.698 321.626 324.195V209.449C321.626 208.705 321.479 207.968 321.194 207.28C320.91 206.593 320.492 205.968 319.966 205.441C319.44 204.915 318.815 204.497 318.127 204.213C317.44 203.928 316.703 203.781 315.959 203.781V203.781Z" fill="#3F3D56"/>
<path d="M213.175 256.428C220.125 256.428 225.759 250.793 225.759 243.842C225.759 236.89 220.125 231.255 213.175 231.255C206.225 231.255 200.591 236.89 200.591 243.842C200.591 250.793 206.225 256.428 213.175 256.428Z" stroke="#D0CDE1" stroke-width="2" stroke-miterlimit="10"/>
<path d="M209.148 260.959C216.098 260.959 221.732 255.324 221.732 248.373C221.732 241.421 216.098 235.786 209.148 235.786C202.198 235.786 196.564 241.421 196.564 248.373C196.564 255.324 202.198 260.959 209.148 260.959Z" fill="#D0CDE1"/>
<path d="M54.5878 332.903H40.4936V347H54.5878V332.903Z" fill="#D0CDE1"/>
<path d="M46.0326 321.827V338.945H63.147V321.827H46.0326ZM62.402 338.2H46.7726V322.572H62.402V338.2Z" fill="#3F3D56"/>
<path d="M47.6082 115.854C69.6648 115.854 87.5453 97.9701 87.5453 75.909C87.5453 53.8478 69.6648 35.9638 47.6082 35.9638C25.5515 35.9638 7.67109 53.8478 7.67109 75.909C7.67109 97.9701 25.5515 115.854 47.6082 115.854Z" fill="#F7A9A8"/>
<path d="M61.5257 28.4408C57.9096 27.9808 54.2498 27.9808 50.6337 28.4408C42.5777 29.4988 34.9941 32.846 28.783 38.0855C22.5718 43.3249 17.9937 50.2365 15.592 58.0002C14.4997 61.5384 13.8811 65.2057 13.7524 68.9065C13.7343 69.4209 13.7222 69.9414 13.7222 70.4619C13.7334 81.6947 18.1997 92.4641 26.1408 100.407C34.082 108.35 44.8493 112.817 56.0797 112.828C56.9813 112.828 57.8829 112.798 58.7725 112.743C60.8605 112.612 62.9358 112.325 64.9809 111.884C74.7471 109.783 83.4569 104.298 89.5721 96.3978C95.6873 88.4972 98.8143 78.6893 98.401 68.7064C97.9876 58.7234 94.0604 49.2078 87.313 41.84C80.5656 34.4723 71.4321 29.7264 61.5257 28.4408H61.5257ZM69.3376 109.427H69.3315C65.9203 110.591 62.3695 111.297 58.7724 111.527C57.8829 111.587 56.9813 111.618 56.0797 111.618C45.1708 111.604 34.7126 107.264 26.9989 99.5486C19.2852 91.8333 14.9457 81.373 14.9324 70.4619C14.9324 69.9414 14.9445 69.4209 14.9626 68.9065C15.3786 58.2731 19.8909 48.2128 27.5548 40.8315C35.2188 33.4503 45.4403 29.3204 56.0797 29.3063C65.828 29.3068 75.2596 32.7689 82.694 39.0756C90.1285 45.3824 95.0829 54.1242 96.6747 63.7436C98.2665 73.3631 96.3922 83.2354 91.3858 91.6016C86.3793 99.9679 78.5659 106.285 69.3376 109.427H69.3376Z" fill="#3F3D56"/>
<path d="M56.6848 31.7272H55.4746V40.2004H56.6848V31.7272Z" fill="#3F3D56"/>
<path d="M29.1235 42.6443L28.2678 43.5003L34.258 49.4917L35.1138 48.6358L29.1235 42.6443Z" fill="#3F3D56"/>
<path d="M17.3528 69.8567V71.0671H25.8243V69.8567H17.3528Z" fill="#3F3D56"/>
<path d="M28.2678 97.4235L29.1235 98.2795L35.1138 92.288L34.258 91.4321L28.2678 97.4235Z" fill="#3F3D56"/>
<path d="M77.0456 48.6358L77.9014 49.4917L83.8916 43.5003L83.0359 42.6443L77.0456 48.6358Z" fill="#3F3D56"/>
<path d="M86.3351 69.8567V71.0671H94.8066V69.8567H86.3351Z" fill="#3F3D56"/>
<path d="M77.9013 91.4321L77.0456 92.288L83.0359 98.2795L83.8916 97.4235L77.9013 91.4321Z" fill="#3F3D56"/>
<path d="M56.6848 100.723H55.4746V109.197H56.6848V100.723Z" fill="#3F3D56"/>
<path d="M57.895 68.041C57.3713 67.6481 56.7343 67.4358 56.0797 67.4358C55.4251 67.4358 54.7881 67.6481 54.2644 68.041C53.9059 68.3134 53.6106 68.6603 53.3991 69.0578C53.131 69.5696 53.0151 70.1475 53.0649 70.7232C53.1148 71.2989 53.3284 71.8483 53.6804 72.3064C54.0325 72.7645 54.5084 73.1123 55.0517 73.3085C55.5951 73.5048 56.1833 73.5414 56.7468 73.4139C57.3103 73.2865 57.8255 73.0004 58.2316 72.5894C58.6377 72.1784 58.9176 71.6597 59.0384 71.0947C59.1592 70.5296 59.1157 69.9418 58.9131 69.4006C58.7105 68.8595 58.3572 68.3877 57.895 68.041H57.895ZM56.0797 72.2776C55.5987 72.2762 55.1378 72.0844 54.7976 71.7442C54.4575 71.404 54.2658 70.943 54.2644 70.4619C54.2667 70.0947 54.3784 69.7365 54.5851 69.433C54.7624 69.1762 55.003 68.9694 55.2835 68.8328C55.5641 68.6962 55.8751 68.6342 56.1866 68.653C56.4981 68.6718 56.7995 68.7707 57.0616 68.94C57.3237 69.1094 57.5377 69.3435 57.6828 69.6198C57.828 69.8961 57.8994 70.2052 57.8902 70.5172C57.881 70.8291 57.7915 71.1335 57.6303 71.4007C57.4691 71.6679 57.2417 71.8891 56.9701 72.0427C56.6984 72.1963 56.3917 72.2772 56.0797 72.2776V72.2776Z" fill="#3F3D56"/>
<path d="M61.5257 17.8069H50.6337V28.701H61.5257V17.8069Z" fill="#3F3D56"/>
<path d="M56.0797 19.6226C64.1003 19.6226 70.6023 17.3193 70.6023 14.4781C70.6023 11.6369 64.1003 9.33366 56.0797 9.33366C48.0591 9.33366 41.5571 11.6369 41.5571 14.4781C41.5571 17.3193 48.0591 19.6226 56.0797 19.6226Z" fill="#3F3D56"/>
<path d="M57.895 47.4632H54.2644V68.041H57.895V47.4632Z" fill="#3F3D56"/>
<path d="M113.76 110.984H0V112.194H113.76V110.984Z" fill="#3F3D56"/>
<path d="M75.8034 301.956C76.2731 318.041 66.8762 323.936 55.0833 324.281C54.8094 324.289 54.5367 324.294 54.2652 324.296C53.7184 324.3 53.1768 324.291 52.6405 324.268C41.9751 323.825 33.5327 318.163 33.0959 303.203C32.6439 287.722 51.8558 267.607 53.2972 266.119L53.2998 266.117C53.3545 266.061 53.3826 266.032 53.3826 266.032C53.3826 266.032 75.3337 285.871 75.8034 301.956Z" fill="#D0CDE1"/>
<path d="M54.2343 321.843L61.7255 310.701L54.2496 323.042L54.2652 324.296C53.7183 324.3 53.1768 324.291 52.6405 324.268L53.0121 308.151L53.0019 308.027L53.0156 308.003L53.0511 306.48L44.8474 294.567L53.0415 305.34L53.0705 305.662L53.3512 293.485L46.2653 281.134L53.3713 291.346L53.2972 266.119L53.2973 266.035L53.2997 266.117L53.7701 286L60.228 277.924L53.7913 287.713L53.9322 298.605L59.8748 287.975L53.9541 300.206L54.0325 306.262L62.6747 291.455L54.0588 308.375L54.2343 321.843Z" fill="#3F3D56"/>
</g>
<defs>
<clipPath id="clip0_253_870">
<rect width="402" height="347" fill="white"/>
</clipPath>
</defs>
</svg>
