<svg width="365" height="397" viewBox="0 0 365 397" fill="none" xmlns="http://www.w3.org/2000/svg">
<path d="M365 330.361C365 330.547 364.981 330.732 364.944 330.904C364.906 331.076 364.851 331.233 364.782 331.365C364.712 331.496 364.63 331.601 364.539 331.672C364.449 331.743 364.351 331.779 364.253 331.779H-58.2532C-58.4513 331.779 -58.6412 331.629 -58.7813 331.363C-58.9213 331.097 -59 330.737 -59 330.361C-59 329.985 -58.9213 329.624 -58.7813 329.358C-58.6412 329.092 -58.4513 328.943 -58.2532 328.943H364.253C364.351 328.942 364.449 328.979 364.539 329.05C364.63 329.121 364.712 329.225 364.782 329.357C364.851 329.489 364.906 329.645 364.944 329.817C364.981 329.99 365 330.174 365 330.361V330.361Z" fill="#E5C3D1"/>
<path d="M116.078 298.947C190.591 298.947 250.996 238.476 250.996 163.88C250.996 89.2852 190.591 28.8138 116.078 28.8138C41.565 28.8138 -18.8398 89.2852 -18.8398 163.88C-18.8398 238.476 41.565 298.947 116.078 298.947Z" fill="#F7A9A8"/>
<path d="M232.17 163.88C232.184 182.015 227.952 199.901 219.815 216.103C211.678 232.305 199.861 246.372 185.313 257.177C184.34 257.906 183.349 258.616 182.351 259.307C162.897 272.845 139.771 280.101 116.078 280.101C92.3853 280.101 69.2596 272.845 49.8052 259.307C48.8074 258.616 47.8159 257.906 46.8432 257.177C32.3051 246.363 20.4958 232.293 12.3596 216.093C4.22343 199.893 -0.0140381 182.013 -0.0140381 163.88C-0.0140381 145.748 4.22343 127.867 12.3596 111.668C20.4958 95.4679 32.3051 81.3984 46.8432 70.5839C47.8159 69.8552 48.8074 69.1453 49.8052 68.4543C69.2596 54.9163 92.3853 47.6603 116.078 47.6603C139.771 47.6603 162.897 54.9163 182.351 68.4543C183.349 69.1453 184.34 69.8552 185.313 70.5839C199.861 81.3889 211.678 95.4564 219.815 111.658C227.952 127.86 232.184 145.746 232.17 163.88V163.88Z" fill="#F7A9A8"/>
<path d="M116.078 270.049C174.649 270.049 222.13 222.516 222.13 163.88C222.13 105.245 174.649 57.7117 116.078 57.7117C57.5073 57.7117 10.0263 105.245 10.0263 163.88C10.0263 222.516 57.5073 270.049 116.078 270.049Z" fill="#FCDDDC"/>
<path opacity="0.2" d="M116.355 58.0085C114.747 58.0085 113.149 58.0506 111.559 58.1215C138.363 60.4794 163.27 72.9493 181.232 93.0047C199.195 113.06 208.872 139.201 208.301 166.132C207.73 193.063 196.954 218.77 178.157 238.044C159.361 257.318 133.948 268.719 107.068 269.936C110.129 270.202 113.225 270.346 116.355 270.346C144.481 270.346 171.456 259.16 191.345 239.25C211.233 219.339 222.407 192.335 222.407 164.177C222.407 136.02 211.233 109.015 191.345 89.1046C171.456 69.1941 144.481 58.0085 116.355 58.0085V58.0085Z" fill="black"/>
<path d="M116.392 50.1731C115.477 50.1747 114.6 50.5393 113.953 51.1869C113.306 51.8345 112.942 52.7125 112.94 53.6283V68.7056C112.94 69.6219 113.304 70.5008 113.951 71.1487C114.599 71.7967 115.477 72.1608 116.392 72.1608C117.307 72.1608 118.185 71.7967 118.832 71.1487C119.48 70.5008 119.843 69.6219 119.843 68.7056V53.6283C119.842 52.7125 119.477 51.8345 118.831 51.1869C118.184 50.5393 117.307 50.1747 116.392 50.1731V50.1731Z" fill="#F7A9A8"/>
<path d="M185.313 70.5839C184.34 69.8552 183.349 69.1453 182.351 68.4543C181.752 68.4152 181.154 68.5331 180.615 68.7964C180.075 69.0598 179.614 69.4593 179.276 69.9557L170.798 82.4133C170.283 83.1705 170.09 84.1016 170.26 85.0017C170.431 85.9018 170.952 86.6972 171.708 87.2128C172.465 87.7285 173.395 87.9222 174.294 87.7514C175.193 87.5806 175.987 87.0592 176.503 86.3019L184.98 73.8444C185.303 73.3718 185.502 72.8259 185.56 72.2564C185.619 71.687 185.533 71.112 185.313 70.5839V70.5839Z" fill="#F7A9A8"/>
<path d="M223.83 127.387C223.66 126.967 223.409 126.585 223.09 126.262C222.772 125.94 222.394 125.683 221.977 125.507C221.559 125.331 221.112 125.238 220.659 125.236C220.206 125.233 219.757 125.319 219.337 125.49L205.381 131.163C204.534 131.508 203.859 132.176 203.503 133.02C203.148 133.864 203.142 134.815 203.486 135.663C203.83 136.511 204.497 137.188 205.339 137.545C206.182 137.901 207.131 137.908 207.979 137.564L221.935 131.892C222.782 131.544 223.457 130.876 223.812 130.031C224.167 129.187 224.174 128.236 223.83 127.387Z" fill="#F7A9A8"/>
<path d="M61.3579 82.4133L52.88 69.9557C52.5422 69.4593 52.0809 69.0598 51.5417 68.7965C51.0024 68.5331 50.4039 68.4152 49.8052 68.4543C48.8074 69.1453 47.8159 69.8552 46.8433 70.5839C46.6228 71.1121 46.5377 71.687 46.5958 72.2565C46.6539 72.8259 46.8533 73.3718 47.1758 73.8444L55.6537 86.3019C56.1688 87.0592 56.9633 87.5806 57.8624 87.7514C58.7615 87.9222 59.6916 87.7285 60.448 87.2128C61.2044 86.6972 61.7252 85.9018 61.8959 85.0017C62.0665 84.1016 61.873 83.1705 61.3579 82.4133V82.4133Z" fill="#F7A9A8"/>
<path d="M26.775 131.163L12.8188 125.49C11.9709 125.145 11.021 125.152 10.1779 125.508C9.33483 125.865 8.6677 126.542 8.32323 127.391C7.97876 128.239 7.98517 129.19 8.34104 130.035C8.69691 130.879 9.3731 131.547 10.2209 131.892L24.177 137.564C25.0248 137.908 25.9743 137.901 26.8168 137.545C27.6594 137.188 28.326 136.511 28.6703 135.663C29.0146 134.814 29.0084 133.864 28.653 133.02C28.2976 132.176 27.6221 131.508 26.775 131.163V131.163Z" fill="#F7A9A8"/>
<path d="M116.392 255.6C115.477 255.602 114.6 255.966 113.953 256.614C113.306 257.262 112.942 258.14 112.94 259.055V274.133C112.94 275.049 113.304 275.928 113.951 276.576C114.599 277.224 115.477 277.588 116.392 277.588C117.307 277.588 118.185 277.224 118.832 276.576C119.48 275.928 119.843 275.049 119.843 274.133V259.055C119.842 258.14 119.477 257.262 118.831 256.614C118.184 255.966 117.307 255.602 116.392 255.6V255.6Z" fill="#F7A9A8"/>
<path d="M184.98 253.917L176.503 241.459C176.247 241.084 175.921 240.763 175.542 240.514C175.163 240.266 174.739 240.094 174.294 240.01C173.849 239.925 173.391 239.929 172.948 240.021C172.504 240.114 172.083 240.293 171.708 240.548C171.334 240.803 171.013 241.13 170.765 241.51C170.516 241.889 170.345 242.314 170.26 242.759C170.176 243.205 170.18 243.663 170.272 244.107C170.364 244.551 170.543 244.973 170.798 245.348L179.276 257.805C179.614 258.302 180.075 258.701 180.615 258.964C181.154 259.228 181.752 259.346 182.351 259.307C183.349 258.616 184.34 257.906 185.313 257.177C185.533 256.649 185.619 256.074 185.56 255.505C185.502 254.935 185.303 254.389 184.98 253.917Z" fill="#F7A9A8"/>
<path d="M221.935 195.869L207.979 190.197C207.131 189.852 206.181 189.858 205.338 190.215C204.495 190.571 203.828 191.248 203.484 192.097C203.139 192.946 203.146 193.897 203.501 194.741C203.857 195.585 204.533 196.253 205.381 196.598L219.337 202.271C220.185 202.615 221.135 202.608 221.977 202.251C222.82 201.894 223.486 201.218 223.831 200.369C224.175 199.521 224.169 198.57 223.813 197.727C223.458 196.883 222.783 196.215 221.935 195.869V195.869Z" fill="#F7A9A8"/>
<path d="M60.448 240.548C59.6915 240.033 58.7615 239.839 57.8625 240.01C56.9634 240.181 56.169 240.702 55.6537 241.459L47.1759 253.917C46.8533 254.389 46.6539 254.935 46.5958 255.504C46.5377 256.074 46.6228 256.649 46.8433 257.177C47.816 257.906 48.8074 258.616 49.8052 259.307C50.4039 259.346 51.0024 259.228 51.5417 258.964C52.0809 258.701 52.5423 258.302 52.8801 257.805L61.358 245.348C61.613 244.973 61.7918 244.551 61.8842 244.107C61.9765 243.663 61.9805 243.205 61.896 242.759C61.8115 242.314 61.6401 241.889 61.3917 241.509C61.1432 241.13 60.8226 240.803 60.448 240.548V240.548Z" fill="#F7A9A8"/>
<path d="M28.6702 192.094C28.4997 191.674 28.2482 191.291 27.9301 190.969C27.612 190.646 27.2335 190.389 26.8163 190.213C26.399 190.037 25.9512 189.945 25.4983 189.942C25.0455 189.939 24.5965 190.026 24.1771 190.196L10.2209 195.869C9.37374 196.215 8.69826 196.883 8.34286 197.727C7.98747 198.57 7.98125 199.521 8.32555 200.369C8.66986 201.218 9.33652 201.895 10.1791 202.251C11.0216 202.608 11.9711 202.615 12.8188 202.271L26.775 196.598C27.6218 196.251 28.2966 195.582 28.6518 194.738C29.007 193.893 29.0136 192.943 28.6702 192.094V192.094Z" fill="#F7A9A8"/>
<path d="M120.87 162.166C121.189 164.055 120.746 165.993 119.639 167.555C118.532 169.117 116.852 170.176 114.966 170.5L53.7205 180.929C52.7862 181.088 51.8298 181.061 50.9058 180.85C49.9819 180.639 49.1085 180.248 48.3355 179.7C47.5625 179.151 46.905 178.455 46.4007 177.652C45.8963 176.848 45.5549 175.954 45.396 175.018C45.2371 174.083 45.2638 173.125 45.4745 172.2C45.6852 171.275 46.0758 170.401 46.6241 169.627C47.1723 168.853 47.8675 168.195 48.6698 167.69C49.4721 167.185 50.366 166.844 51.3002 166.685L112.546 156.255C114.432 155.936 116.368 156.379 117.929 157.487C119.489 158.596 120.547 160.278 120.87 162.166V162.166Z" fill="#4D3D57"/>
<path d="M185.329 230.096C184.449 230.982 183.254 231.482 182.007 231.487C180.759 231.492 179.56 231.001 178.673 230.122L112.744 164.637C111.859 163.757 111.359 162.561 111.355 161.312C111.351 160.063 111.842 158.864 112.72 157.977C113.599 157.091 114.793 156.59 116.041 156.584C117.288 156.579 118.487 157.069 119.373 157.948L185.303 223.433C186.188 224.313 186.687 225.51 186.692 226.759C186.697 228.008 186.207 229.208 185.329 230.096V230.096Z" fill="#4D3D57"/>
<path d="M116.078 172.047C120.584 172.047 124.236 168.391 124.236 163.88C124.236 159.37 120.584 155.714 116.078 155.714C111.573 155.714 107.92 159.37 107.92 163.88C107.92 168.391 111.573 172.047 116.078 172.047Z" fill="#F7A9A8"/>
<path d="M59.8871 22.267C47.3649 41.9757 28.2589 55.0554 4.69635 63.6479C4.23075 63.997 3.70103 64.2509 3.13742 64.3951C2.57381 64.5392 1.98737 64.5708 1.41156 64.4881C0.835745 64.4053 0.28185 64.2099 -0.2185 63.9128C-0.718851 63.6158 -1.15586 63.223 -1.50457 62.7569V62.7569C-14.3035 45.649 -11.4135 21.1983 5.47841 8.12592C9.56228 4.97095 14.2315 2.65952 19.215 1.32583C24.1985 -0.00786559 29.397 -0.337257 34.5086 0.356784C39.6203 1.05082 44.5434 2.75447 48.992 5.3688C53.4406 7.98314 57.3262 11.4561 60.4232 15.5861L60.7772 16.0592C61.1259 16.5254 61.3795 17.0557 61.5235 17.6199C61.6675 18.1841 61.699 18.7712 61.6164 19.3477C61.5337 19.9241 61.3385 20.4786 61.0417 20.9795C60.745 21.4804 60.3527 21.9179 59.8871 22.267V22.267Z" fill="#F7A9A8"/>
<path d="M171.733 15.586C174.83 11.4561 178.716 7.98312 183.164 5.36878C187.613 2.75444 192.536 1.05081 197.648 0.356771C202.759 -0.33727 207.958 -0.00788774 212.941 1.3258C217.925 2.65949 222.594 4.97092 226.678 8.1259C243.57 21.1983 246.46 45.6489 233.661 62.7569C233.312 63.223 232.875 63.6158 232.375 63.9128C231.874 64.2099 231.32 64.4053 230.745 64.4881C230.169 64.5708 229.582 64.5392 229.019 64.395C228.455 64.2509 227.925 63.997 227.46 63.6479C205.586 55.2641 187.648 40.756 172.269 22.267C171.329 21.5619 170.707 20.5118 170.54 19.3476C170.373 18.1834 170.675 17.0006 171.379 16.0592L171.733 15.586Z" fill="#F7A9A8"/>
<path d="M166.245 280.897C165.447 281.346 164.86 282.093 164.611 282.974C164.362 283.856 164.473 284.8 164.918 285.6L184.837 321.234C185.284 322.033 186.03 322.622 186.911 322.871C187.792 323.12 188.735 323.009 189.534 322.561C190.333 322.114 190.921 321.367 191.17 320.485C191.419 319.604 191.307 318.659 190.861 317.859L170.942 282.225C170.494 281.427 169.748 280.839 168.867 280.59C167.987 280.341 167.044 280.452 166.245 280.897V280.897Z" fill="#F7A9A8"/>
<path d="M61.2144 282.225L41.2956 317.859C40.8488 318.659 40.7376 319.604 40.9864 320.485C41.2353 321.367 41.8237 322.114 42.6224 322.561C43.4211 323.009 44.3646 323.12 45.2454 322.871C46.1262 322.622 46.8722 322.033 47.3193 321.234L67.2382 285.6C67.4596 285.204 67.601 284.768 67.6542 284.317C67.7074 283.867 67.6714 283.41 67.5483 282.973C67.4251 282.537 67.2173 282.128 66.9365 281.772C66.6558 281.416 66.3077 281.118 65.9121 280.897C65.5165 280.675 65.0812 280.534 64.631 280.481C64.1808 280.427 63.7246 280.464 63.2884 280.587C62.8521 280.71 62.4445 280.918 62.0886 281.2C61.7327 281.481 61.4357 281.829 61.2144 282.225H61.2144Z" fill="#F7A9A8"/>
<path d="M188.871 330.358C194.763 330.358 199.539 325.577 199.539 319.678C199.539 313.78 194.763 308.999 188.871 308.999C182.979 308.999 178.203 313.78 178.203 319.678C178.203 325.577 182.979 330.358 188.871 330.358Z" fill="#F7A9A8"/>
<path d="M196.401 57.0835C202.293 57.0835 207.069 52.3021 207.069 46.4038C207.069 40.5056 202.293 35.7242 196.401 35.7242C190.51 35.7242 185.733 40.5056 185.733 46.4038C185.733 52.3021 190.51 57.0835 196.401 57.0835Z" fill="#F7A9A8"/>
<path d="M115.451 31.9548C121.342 31.9548 126.119 27.1734 126.119 21.2752C126.119 15.3769 121.342 10.5955 115.451 10.5955C109.559 10.5955 104.783 15.3769 104.783 21.2752C104.783 27.1734 109.559 31.9548 115.451 31.9548Z" fill="#F7A9A8"/>
<path d="M38.265 55.8271C44.1567 55.8271 48.9329 51.0456 48.9329 45.1474C48.9329 39.2492 44.1567 34.4677 38.265 34.4677C32.3732 34.4677 27.597 39.2492 27.597 45.1474C27.597 51.0456 32.3732 55.8271 38.265 55.8271Z" fill="#F7A9A8"/>
<path d="M45.1677 330.358C51.0595 330.358 55.8357 325.577 55.8357 319.678C55.8357 313.78 51.0595 308.999 45.1677 308.999C39.276 308.999 34.4998 313.78 34.4998 319.678C34.4998 325.577 39.276 330.358 45.1677 330.358Z" fill="#F7A9A8"/>
<path d="M180.503 224.089C180.924 224.749 181.483 225.307 182.143 225.727C182.803 226.146 183.546 226.415 184.321 226.515C185.096 226.616 185.883 226.545 186.627 226.308C187.372 226.071 188.055 225.673 188.63 225.143L205.369 234.122L204.472 224.283L188.713 217.265C187.759 216.358 186.507 215.833 185.192 215.789C183.877 215.745 182.592 216.185 181.58 217.026C180.568 217.868 179.9 219.051 179.701 220.353C179.503 221.655 179.788 222.984 180.503 224.089H180.503Z" fill="#FBBFBE"/>
<path d="M192.7 227.523L199.26 218.458L230.862 233.414L270.187 226.027C272.131 225.662 274.131 225.73 276.046 226.226C277.96 226.721 279.743 227.633 281.266 228.896C282.789 230.159 284.016 231.742 284.859 233.533C285.702 235.324 286.141 237.279 286.145 239.259V239.259C286.148 242.835 284.733 246.266 282.212 248.8C279.691 251.333 276.269 252.762 272.696 252.772L227.63 252.856L192.7 227.523Z" fill="#4D3D57"/>
<path d="M182.597 384.091L175.959 380.914L185.077 353.142L194.872 357.832L182.597 384.091Z" fill="#FBBFBE"/>
<path d="M227.092 379.614C226.609 379.917 226.127 380.215 225.639 380.512C224.669 381.108 223.689 381.693 222.709 382.269C222.217 382.557 221.72 382.845 221.227 383.128V383.143L221.198 383.148L221.188 383.153L220.437 383.338L219.36 380.488L218.863 379.175L218.161 377.316L216.874 373.914L210.097 356.003L220.632 353.401L221.027 355.017H221.032L221.227 355.817L224.908 370.761L225.659 373.816L225.683 373.909L226.136 375.734L226.526 377.316L226.96 379.082L227.092 379.614Z" fill="#FBBFBE"/>
<path d="M289.938 316.714C289.27 317.788 288.587 318.857 287.9 319.916C286.622 321.887 285.311 323.83 283.966 325.743C283.966 325.748 283.961 325.748 283.956 325.753C283.171 326.481 282.304 327.114 281.372 327.641C281.333 327.671 281.289 327.69 281.25 327.715C280.564 328.094 279.834 328.388 279.076 328.588C278.803 328.656 278.525 328.725 278.252 328.793C277.267 329.027 276.292 329.227 275.322 329.403C273.596 329.711 271.89 329.93 270.193 330.067C270.057 330.082 269.92 330.091 269.784 330.101C262.808 330.614 256.017 329.789 248.928 328.437C245.428 327.773 241.855 326.978 238.154 326.153C236.945 325.879 235.732 325.611 234.503 325.343C234.41 325.323 234.313 325.299 234.215 325.279C232.46 324.894 230.676 324.513 228.848 324.137C226.547 323.664 224.173 323.205 221.706 322.771L221.881 326.25C222.027 328.927 222.583 331.566 223.529 334.074C224.582 337.158 225.416 339.598 223.656 344.679L222.808 347.139C223.247 348.36 223.398 349.667 223.249 350.957C223.099 352.246 222.653 353.484 221.945 354.572L221.774 354.83L228.848 372.746L229.306 373.908H225.684L221.228 373.913H213.677L202.781 352.029L202.259 350.985V350.931L203.385 308.876C203.4 308.505 203.429 308.129 203.478 307.758C203.677 306.072 204.209 304.442 205.043 302.964C205.878 301.486 206.998 300.189 208.338 299.149C209.623 298.144 211.094 297.405 212.667 296.974C214.24 296.544 215.882 296.43 217.499 296.641L221.228 297.124L228.848 298.11L234.215 298.808L234.323 298.822L250.152 300.872L251.288 296.236L251.498 296.158L258.162 293.712L281.211 285.255L281.27 285.235L282.786 284.679L282.966 284.972C283.02 285.059 283.073 285.147 283.122 285.235C284.621 287.925 285.841 290.76 286.764 293.698C288.316 298.497 289.594 303.38 290.591 308.325C290.635 308.539 290.674 308.735 290.708 308.91L290.722 308.964C290.737 309.047 290.747 309.101 290.752 309.115C291.283 311.331 290.913 314.035 289.938 316.714Z" fill="#3A2E41"/>
<path d="M290.91 301.216C290.837 300.903 290.745 300.586 290.647 300.279C289.873 297.95 288.972 295.665 287.946 293.436C286.796 290.898 285.416 288.18 283.773 285.237C282.979 283.812 282.124 282.33 281.209 280.791C280.751 280.02 280.275 279.234 279.781 278.434C279.761 278.397 279.74 278.361 279.717 278.326L279.576 278.092L256.77 281.147L248.278 282.284L247.771 286.521L247.649 287.57C247.644 287.57 247.644 287.57 247.649 287.575L247.308 290.435V290.44L246.854 294.217L246.815 294.212L234.213 292.577L221.226 290.893L214.25 289.991C212.633 289.78 210.991 289.893 209.418 290.323C207.845 290.754 206.374 291.494 205.09 292.499C203.749 293.539 202.629 294.836 201.795 296.314C200.96 297.793 200.428 299.422 200.229 301.108C200.185 301.45 200.156 301.801 200.141 302.148L193.56 317.76C189.622 327.097 187.114 336.976 186.121 347.063L181.294 362.509L181.982 362.573L192.21 363.524L194.91 363.778L200.858 355.086C201.536 354.095 202.179 353.075 202.779 352.031C203.766 350.325 204.644 348.558 205.406 346.74L218.272 316.091C219.266 316.262 220.251 316.425 221.226 316.579C225.736 317.311 230.065 317.908 234.213 318.37C247.703 319.878 259.383 319.996 269.782 318.717C272.702 318.361 275.525 317.892 278.25 317.311C279.249 317.101 280.236 316.875 281.209 316.633C281.438 316.579 281.662 316.526 281.887 316.467C283.901 315.947 285.754 314.929 287.274 313.507C288.794 312.085 289.934 310.304 290.589 308.326C291.37 306.035 291.482 303.568 290.91 301.216V301.216Z" fill="#3A2E41"/>
<path d="M184.717 379.557L177.536 376.111L176.41 375.569L174.611 379.991L162.052 382.758C161.431 382.894 160.87 383.226 160.451 383.704C160.032 384.182 159.776 384.782 159.722 385.417C159.667 386.051 159.817 386.685 160.148 387.228C160.48 387.771 160.976 388.194 161.565 388.434L173.835 393.446L177.731 389.937L176.775 394.647L181.397 396.536L186.462 380.396L184.717 379.557Z" fill="#3A2E41"/>
<path d="M228.848 372.746L229.306 373.908H228.848V372.746Z" fill="#3A2E41"/>
<path d="M226.347 374.156L218.823 376.766L217.642 377.174L219.471 381.584L212.493 392.396C212.147 392.93 211.981 393.561 212.02 394.196C212.058 394.831 212.298 395.438 212.705 395.927C213.112 396.415 213.664 396.761 214.281 396.913C214.899 397.066 215.548 397.016 216.135 396.772L228.378 391.691L228.679 386.453L231.31 390.473L235.922 388.56L228.177 373.523L226.347 374.156Z" fill="#3A2E41"/>
<path d="M289.034 308.286C288.587 308.286 288.147 308.176 287.752 307.968L248.046 287.198L247.587 285.317L246.722 279.367L246.734 279.311L250.51 261.882C250.441 261.733 250.296 261.487 250.133 261.21C248.447 258.35 243.317 249.647 253.108 237.664L270.3 217.599L285.055 216.964L285.222 217.176C289.168 222.133 291.829 227.99 292.968 234.224C294.108 240.459 293.691 246.879 291.755 252.914L290.219 280.692L291.867 286.302C292.83 289.598 292.671 293.122 291.414 296.318L291.792 305.402C291.806 305.774 291.746 306.146 291.614 306.494C291.482 306.843 291.282 307.161 291.024 307.43C290.767 307.699 290.458 307.914 290.116 308.061C289.774 308.208 289.406 308.285 289.034 308.286L289.034 308.286Z" fill="#4D3D57"/>
<path d="M254.591 331.195C255.264 330.797 255.842 330.256 256.283 329.611C256.724 328.966 257.019 328.231 257.146 327.46C257.273 326.688 257.23 325.898 257.019 325.145C256.808 324.391 256.435 323.694 255.926 323.101L265.472 306.665L255.619 307.221L248.064 322.743C247.126 323.666 246.558 324.901 246.468 326.215C246.379 327.529 246.773 328.83 247.578 329.872C248.383 330.913 249.541 331.623 250.834 331.867C252.126 332.111 253.463 331.872 254.591 331.195L254.591 331.195Z" fill="#FBBFBE"/>
<path d="M258.444 319.111L249.622 312.233L265.652 281.135L259.645 241.534C259.349 239.576 259.486 237.577 260.047 235.679C260.609 233.781 261.581 232.029 262.895 230.549C264.209 229.069 265.832 227.897 267.649 227.116C269.466 226.334 271.433 225.963 273.41 226.028V226.028C276.98 226.15 280.356 227.684 282.797 230.295C285.239 232.905 286.546 236.379 286.432 239.953L284.948 285.045L258.444 319.111Z" fill="#4D3D57"/>
<path d="M260.835 209.262V194.645C260.832 189.451 262.89 184.468 266.557 180.792C270.224 177.117 275.198 175.05 280.387 175.047C285.576 175.043 290.554 177.104 294.225 180.774C297.896 184.445 299.961 189.426 299.964 194.62V194.645C303.412 201.839 301.255 205.259 299.964 209.262C299.963 209.959 299.686 210.627 299.193 211.12C298.701 211.613 298.034 211.89 297.337 211.892H263.464C262.767 211.891 262.099 211.614 261.607 211.121C261.114 210.628 260.837 209.959 260.835 209.262V209.262Z" fill="#3A2E41"/>
<path d="M273.985 210.942C282.073 210.942 288.63 204.378 288.63 196.281C288.63 188.184 282.073 181.62 273.985 181.62C265.897 181.62 259.34 188.184 259.34 196.281C259.34 204.378 265.897 210.942 273.985 210.942Z" fill="#FBBFBE"/>
<path d="M289.311 200.124C289.179 200.103 289.046 200.075 288.913 200.054C286.629 199.649 284.344 199.25 282.067 198.838L281.857 193.669L279.098 198.299C272.804 200.39 266.915 199.208 261.375 196.6C259.548 195.731 257.775 194.753 256.066 193.669C256.531 190.811 257.629 188.093 259.279 185.714C260.929 183.335 263.089 181.356 265.602 179.92C265.811 179.801 266.014 179.697 266.223 179.592C266.224 179.592 266.225 179.591 266.226 179.591C266.227 179.591 266.228 179.59 266.228 179.59C266.229 179.589 266.229 179.588 266.23 179.587C266.23 179.586 266.23 179.585 266.23 179.585C266.587 179.417 266.95 179.256 267.313 179.109C270.157 177.996 273.258 177.715 276.256 178.296C279.253 178.878 282.024 180.3 284.247 182.396C288.717 186.669 290.729 193.725 289.311 200.124Z" fill="#3A2E41"/>
</svg>
